  0
SECTION
  2
BLOCKS
  0
ENDSEC
  0
SECTION
  2
ENTITIES
  0
LINE
  8
0
 10
81.5
 20
136
 11
0
 21
136
  0
LINE
  8
0
 10
0
 20
136
 11
0
 21
0
  0
LINE
  8
0
 10
0
 20
0
 11
81.5
 21
0
  0
LINE
  8
0
 10
81.5
 20
0
 11
81.5
 21
136
  0
LINE
  8
0
 10
58
 20
112.5
 11
58
 21
126
  0
LINE
  8
0
 10
58
 20
126
 11
71.5
 21
126
  0
LINE
  8
0
 10
71.5
 20
126
 11
71.5
 21
112.5
  0
LINE
  8
0
 10
71.5
 20
112.5
 11
58
 21
112.5
  0
LINE
  8
0
 10
42
 20
105
 11
42
 21
118.5
  0
LINE
  8
0
 10
42
 20
118.5
 11
55.5
 21
118.5
  0
LINE
  8
0
 10
55.5
 20
118.5
 11
55.5
 21
105
  0
LINE
  8
0
 10
55.5
 20
105
 11
42
 21
105
  0
LINE
  8
0
 10
26
 20
97.5
 11
26
 21
111
  0
LINE
  8
0
 10
26
 20
111
 11
39.5
 21
111
  0
LINE
  8
0
 10
39.5
 20
111
 11
39.5
 21
97.5
  0
LINE
  8
0
 10
39.5
 20
97.5
 11
26
 21
97.5
  0
LINE
  8
0
 10
58
 20
96.5
 11
58
 21
110
  0
LINE
  8
0
 10
58
 20
110
 11
71.5
 21
110
  0
LINE
  8
0
 10
71.5
 20
110
 11
71.5
 21
96.5
  0
LINE
  8
0
 10
71.5
 20
96.5
 11
58
 21
96.5
  0
LINE
  8
0
 10
10
 20
90
 11
10
 21
103.5
  0
LINE
  8
0
 10
10
 20
103.5
 11
23.5
 21
103.5
  0
LINE
  8
0
 10
23.5
 20
103.5
 11
23.5
 21
90
  0
LINE
  8
0
 10
23.5
 20
90
 11
10
 21
90
  0
LINE
  8
0
 10
42
 20
89
 11
42
 21
102.5
  0
LINE
  8
0
 10
42
 20
102.5
 11
55.5
 21
102.5
  0
LINE
  8
0
 10
55.5
 20
102.5
 11
55.5
 21
89
  0
LINE
  8
0
 10
55.5
 20
89
 11
42
 21
89
  0
LINE
  8
0
 10
26
 20
81.5
 11
26
 21
95
  0
LINE
  8
0
 10
26
 20
95
 11
39.5
 21
95
  0
LINE
  8
0
 10
39.5
 20
95
 11
39.5
 21
81.5
  0
LINE
  8
0
 10
39.5
 20
81.5
 11
26
 21
81.5
  0
LINE
  8
0
 10
58
 20
80.5
 11
58
 21
94
  0
LINE
  8
0
 10
58
 20
94
 11
71.5
 21
94
  0
LINE
  8
0
 10
71.5
 20
94
 11
71.5
 21
80.5
  0
LINE
  8
0
 10
71.5
 20
80.5
 11
58
 21
80.5
  0
LINE
  8
0
 10
10
 20
74
 11
10
 21
87.5
  0
LINE
  8
0
 10
10
 20
87.5
 11
23.5
 21
87.5
  0
LINE
  8
0
 10
23.5
 20
87.5
 11
23.5
 21
74
  0
LINE
  8
0
 10
23.5
 20
74
 11
10
 21
74
  0
LINE
  8
0
 10
42
 20
73
 11
42
 21
86.5
  0
LINE
  8
0
 10
42
 20
86.5
 11
55.5
 21
86.5
  0
LINE
  8
0
 10
55.5
 20
86.5
 11
55.5
 21
73
  0
LINE
  8
0
 10
55.5
 20
73
 11
42
 21
73
  0
LINE
  8
0
 10
26
 20
65.5
 11
26
 21
79
  0
LINE
  8
0
 10
26
 20
79
 11
39.5
 21
79
  0
LINE
  8
0
 10
39.5
 20
79
 11
39.5
 21
65.5
  0
LINE
  8
0
 10
39.5
 20
65.5
 11
26
 21
65.5
  0
LINE
  8
0
 10
58
 20
64.5
 11
58
 21
78
  0
LINE
  8
0
 10
58
 20
78
 11
71.5
 21
78
  0
LINE
  8
0
 10
71.5
 20
78
 11
71.5
 21
64.5
  0
LINE
  8
0
 10
71.5
 20
64.5
 11
58
 21
64.5
  0
LINE
  8
0
 10
10
 20
58
 11
10
 21
71.5
  0
LINE
  8
0
 10
10
 20
71.5
 11
23.5
 21
71.5
  0
LINE
  8
0
 10
23.5
 20
71.5
 11
23.5
 21
58
  0
LINE
  8
0
 10
23.5
 20
58
 11
10
 21
58
  0
LINE
  8
0
 10
42
 20
57
 11
42
 21
70.5
  0
LINE
  8
0
 10
42
 20
70.5
 11
55.5
 21
70.5
  0
LINE
  8
0
 10
55.5
 20
70.5
 11
55.5
 21
57
  0
LINE
  8
0
 10
55.5
 20
57
 11
42
 21
57
  0
LINE
  8
0
 10
26
 20
49.5
 11
26
 21
63
  0
LINE
  8
0
 10
26
 20
63
 11
39.5
 21
63
  0
LINE
  8
0
 10
39.5
 20
63
 11
39.5
 21
49.5
  0
LINE
  8
0
 10
39.5
 20
49.5
 11
26
 21
49.5
  0
LINE
  8
0
 10
58
 20
48.5
 11
58
 21
62
  0
LINE
  8
0
 10
58
 20
62
 11
71.5
 21
62
  0
LINE
  8
0
 10
71.5
 20
62
 11
71.5
 21
48.5
  0
LINE
  8
0
 10
71.5
 20
48.5
 11
58
 21
48.5
  0
LINE
  8
0
 10
10
 20
42
 11
10
 21
55.5
  0
LINE
  8
0
 10
10
 20
55.5
 11
23.5
 21
55.5
  0
LINE
  8
0
 10
23.5
 20
55.5
 11
23.5
 21
42
  0
LINE
  8
0
 10
23.5
 20
42
 11
10
 21
42
  0
LINE
  8
0
 10
42
 20
41
 11
42
 21
54.5
  0
LINE
  8
0
 10
42
 20
54.5
 11
55.5
 21
54.5
  0
LINE
  8
0
 10
55.5
 20
54.5
 11
55.5
 21
41
  0
LINE
  8
0
 10
55.5
 20
41
 11
42
 21
41
  0
LINE
  8
0
 10
26
 20
33.5
 11
26
 21
47
  0
LINE
  8
0
 10
26
 20
47
 11
39.5
 21
47
  0
LINE
  8
0
 10
39.5
 20
47
 11
39.5
 21
33.5
  0
LINE
  8
0
 10
39.5
 20
33.5
 11
26
 21
33.5
  0
LINE
  8
0
 10
58
 20
32.5
 11
58
 21
46
  0
LINE
  8
0
 10
58
 20
46
 11
71.5
 21
46
  0
LINE
  8
0
 10
71.5
 20
46
 11
71.5
 21
32.5
  0
LINE
  8
0
 10
71.5
 20
32.5
 11
58
 21
32.5
  0
LINE
  8
0
 10
10
 20
26
 11
10
 21
39.5
  0
LINE
  8
0
 10
10
 20
39.5
 11
23.5
 21
39.5
  0
LINE
  8
0
 10
23.5
 20
39.5
 11
23.5
 21
26
  0
LINE
  8
0
 10
23.5
 20
26
 11
10
 21
26
  0
LINE
  8
0
 10
42
 20
25
 11
42
 21
38.5
  0
LINE
  8
0
 10
42
 20
38.5
 11
55.5
 21
38.5
  0
LINE
  8
0
 10
55.5
 20
38.5
 11
55.5
 21
25
  0
LINE
  8
0
 10
55.5
 20
25
 11
42
 21
25
  0
LINE
  8
0
 10
26
 20
17.5
 11
26
 21
31
  0
LINE
  8
0
 10
26
 20
31
 11
39.5
 21
31
  0
LINE
  8
0
 10
39.5
 20
31
 11
39.5
 21
17.5
  0
LINE
  8
0
 10
39.5
 20
17.5
 11
26
 21
17.5
  0
LINE
  8
0
 10
10
 20
10
 11
10
 21
23.5
  0
LINE
  8
0
 10
10
 20
23.5
 11
23.5
 21
23.5
  0
LINE
  8
0
 10
23.5
 20
23.5
 11
23.5
 21
10
  0
LINE
  8
0
 10
23.5
 20
10
 11
10
 21
10
  0
ENDSEC
  0
SECTION
  2
OBJECTS
  0
DICTIONARY
  0
ENDSEC
  0
EOF
