M48
; DRILL file {KiCad 7.0.7-7.0.7~ubuntu22.04.1} date Fri 15 Sep 2023 11:44:28 AM CEST
; FORMAT={-:-/ absolute / metric / decimal}
; #@! TF.CreationDate,2023-09-15T11:44:28+02:00
; #@! TF.GenerationSoftware,Kicad,Pcbnew,7.0.7-7.0.7~ubuntu22.04.1
; #@! TF.FileFunction,Plated,1,2,PTH
FMAT,2
METRIC
; #@! TA.AperFunction,Plated,PTH,ViaDrill
T1C0.400
; #@! TA.AperFunction,Plated,PTH,ComponentDrill
T2C0.800
; #@! TA.AperFunction,Plated,PTH,ComponentDrill
T3C1.000
; #@! TA.AperFunction,Plated,PTH,ComponentDrill
T4C1.500
%
G90
G05
T1
X26.5Y-95.5
X26.7Y-118.1
X27.2Y-40.5
X27.3Y-66.4
X32.2Y-33.2
X32.575Y-70.465
X32.6Y-124.0
X33.0Y-41.1
X33.285Y-66.475
X35.8Y-103.9
X35.9Y-68.4
X38.4Y-54.9
X38.7Y-86.7
X42.2Y-54.9
X45.2Y-86.4
X45.9Y-55.0
X46.2Y-64.1
X49.08Y-82.12
X53.1Y-55.0
X53.2Y-41.85
X54.6Y-103.7
X56.0Y-65.9
X56.3Y-32.6
X57.1Y-50.2
X59.6Y-62.4
X60.5Y-55.4
X64.2Y-86.3
X65.0Y-51.4
X67.0Y-55.4
X68.04Y-82.44
X68.1Y-124.9
X71.9Y-61.8
X72.0Y-54.9
X73.5Y-103.9
X73.6Y-67.6
X75.8Y-54.9
X77.4Y-49.95
X79.5Y-54.9
X79.6Y-60.1
X83.0Y-32.8
X83.0Y-86.3
X83.3Y-64.5
X86.8Y-54.9
X86.842Y-82.308
X90.5Y-55.0
X92.4Y-67.8
X92.5Y-103.5
X94.3Y-55.0
X94.3Y-57.2
X96.8Y-60.7
X100.7Y-51.6
X101.3Y-55.1
X102.1Y-86.4
X104.6Y-32.4
X105.4Y-50.2
X105.79Y-82.04
X105.9Y-124.4
X107.6Y-62.3
X108.8Y-56.2
X111.2Y-68.3
X111.4Y-103.4
X113.0Y-51.5
X116.25Y-54.85
X120.5Y-54.7
X121.1Y-86.1
X124.1Y-54.8
X124.2Y-58.1
X124.72Y-82.07
X125.95Y-50.45
X127.8Y-54.8
X130.0Y-103.6
X130.3Y-68.6
X131.6Y-32.8
X135.2Y-54.9
X135.6Y-62.4
X139.0Y-54.9
X139.8Y-86.2
X142.1Y-57.3
X142.7Y-54.8
X143.6Y-124.4
X143.67Y-82.12
X145.9Y-57.1
X149.0Y-103.6
X149.2Y-51.6
X149.9Y-54.8
X150.3Y-67.4
X152.9Y-32.8
X153.8Y-50.4
X155.9Y-62.3
X157.2Y-55.8
X158.8Y-86.4
X162.0Y-51.1
X162.275Y-82.225
X164.25Y-54.95
X167.9Y-103.5
X168.2Y-68.5
X168.8Y-54.9
X172.6Y-55.0
X174.4Y-50.95
X176.2Y-54.9
X176.45Y-60.85
X177.4Y-86.2
X179.9Y-32.7
X181.43Y-82.04
X181.7Y-125.0
X183.6Y-54.9
X186.9Y-103.9
X187.0Y-67.9
X187.3Y-54.9
X191.0Y-54.9
X191.45Y-59.4
X196.2Y-86.1
X197.6Y-51.5
X198.2Y-54.7
X200.0Y-32.7
X200.28Y-81.96
X202.1Y-50.5
X204.4Y-62.2
X205.8Y-54.9
X205.8Y-104.1
X205.9Y-68.6
X209.7Y-51.5
X212.65Y-55.2
X215.4Y-86.3
X217.3Y-54.9
X217.5Y-57.0
X218.6Y-82.05
X219.4Y-125.0
X221.0Y-54.9
X222.5Y-51.15
X224.7Y-54.9
X224.7Y-103.4
X225.3Y-68.9
X226.5Y-32.6
X228.45Y-57.15
X232.0Y-55.0
X235.7Y-54.95
X236.9Y-63.8
X238.115Y-82.075
X242.6Y-50.9
X243.0Y-54.8
X243.05Y-67.65
X243.6Y-61.8
X249.1Y-62.3
X250.2Y-55.1
X251.4Y-32.7
X251.45Y-64.55
X253.4Y-124.2
X259.4Y-117.1
X260.0Y-40.9
X260.0Y-92.8
X260.3Y-65.3
T2
X36.605Y-45.59
X36.605Y-55.75
X40.305Y-45.59
X40.305Y-55.75
X44.035Y-45.535
X44.035Y-55.695
X47.705Y-45.59
X47.705Y-55.75
X55.035Y-38.01
X55.035Y-40.55
X55.035Y-43.09
X55.035Y-45.63
X55.035Y-48.17
X55.035Y-50.71
X55.035Y-53.25
X55.035Y-55.79
X55.035Y-59.79
X60.035Y-59.79
X62.655Y-38.01
X62.655Y-40.55
X62.655Y-43.09
X62.655Y-45.63
X62.655Y-48.17
X62.655Y-50.71
X62.655Y-53.25
X62.655Y-55.79
X70.205Y-45.59
X70.205Y-55.75
X73.905Y-45.59
X73.905Y-55.75
X77.605Y-45.59
X77.605Y-55.75
X81.305Y-45.59
X81.305Y-55.75
X85.005Y-45.59
X85.005Y-55.75
X88.705Y-45.59
X88.705Y-55.75
X92.405Y-45.59
X92.405Y-55.75
X96.105Y-45.59
X96.105Y-55.75
X103.235Y-38.01
X103.235Y-40.55
X103.235Y-43.09
X103.235Y-45.63
X103.235Y-48.17
X103.235Y-50.71
X103.235Y-53.25
X103.235Y-55.79
X103.235Y-59.79
X108.235Y-59.79
X110.855Y-38.01
X110.855Y-40.55
X110.855Y-43.09
X110.855Y-45.63
X110.855Y-48.17
X110.855Y-50.71
X110.855Y-53.25
X110.855Y-55.79
X118.605Y-45.59
X118.605Y-55.75
X122.305Y-45.59
X122.305Y-55.75
X126.005Y-45.59
X126.005Y-55.75
X129.705Y-45.59
X129.705Y-55.75
X133.405Y-45.59
X133.405Y-55.75
X137.105Y-45.59
X137.105Y-55.75
X140.805Y-45.59
X140.805Y-55.75
X144.505Y-45.59
X144.505Y-55.75
X151.635Y-38.01
X151.635Y-40.55
X151.635Y-43.09
X151.635Y-45.63
X151.635Y-48.17
X151.635Y-50.71
X151.635Y-53.25
X151.635Y-55.79
X151.635Y-59.79
X156.635Y-59.79
X159.255Y-38.01
X159.255Y-40.55
X159.255Y-43.09
X159.255Y-45.63
X159.255Y-48.17
X159.255Y-50.71
X159.255Y-53.25
X159.255Y-55.79
X167.005Y-45.59
X167.005Y-55.75
X170.705Y-45.59
X170.705Y-55.75
X174.405Y-45.59
X174.405Y-55.75
X178.105Y-45.59
X178.105Y-55.75
X181.805Y-45.59
X181.805Y-55.75
X185.505Y-45.59
X185.505Y-55.75
X189.205Y-45.59
X189.205Y-55.75
X192.905Y-45.59
X192.905Y-55.75
X200.035Y-38.01
X200.035Y-40.55
X200.035Y-43.09
X200.035Y-45.63
X200.035Y-48.17
X200.035Y-50.71
X200.035Y-53.25
X200.035Y-55.79
X200.035Y-59.79
X205.035Y-59.79
X207.655Y-38.01
X207.655Y-40.55
X207.655Y-43.09
X207.655Y-45.63
X207.655Y-48.17
X207.655Y-50.71
X207.655Y-53.25
X207.655Y-55.79
X215.405Y-45.59
X215.405Y-55.75
X219.105Y-45.59
X219.105Y-55.75
X222.805Y-45.59
X222.805Y-55.75
X226.505Y-45.59
X226.505Y-55.75
X230.205Y-45.59
X230.205Y-55.75
X233.905Y-45.59
X233.905Y-55.75
X237.605Y-45.59
X237.605Y-55.75
X244.435Y-38.01
X244.435Y-40.55
X244.435Y-43.09
X244.435Y-45.63
X244.435Y-48.17
X244.435Y-50.71
X244.435Y-53.25
X244.435Y-55.79
X244.435Y-59.79
X249.435Y-59.79
X252.055Y-38.01
X252.055Y-40.55
X252.055Y-43.09
X252.055Y-45.63
X252.055Y-48.17
X252.055Y-50.71
X252.055Y-53.25
X252.055Y-55.79
T3
X34.675Y-38.705
X37.215Y-38.705
X39.755Y-38.705
X42.295Y-38.705
X44.835Y-38.705
X47.375Y-38.705
T4
X35.845Y-72.935
X35.845Y-108.935
X42.195Y-70.395
X42.195Y-106.395
X45.295Y-90.935
X51.645Y-88.395
X54.745Y-72.935
X54.745Y-108.935
X61.095Y-70.395
X61.095Y-106.395
X64.195Y-90.935
X70.545Y-88.395
X73.645Y-72.935
X73.645Y-108.935
X79.995Y-70.395
X79.995Y-106.395
X83.095Y-90.935
X89.445Y-88.395
X92.545Y-72.935
X92.545Y-108.935
X98.895Y-70.395
X98.895Y-106.395
X101.995Y-90.935
X108.345Y-88.395
X111.445Y-72.935
X111.445Y-108.935
X117.795Y-70.395
X117.795Y-106.395
X120.895Y-90.935
X127.245Y-88.395
X130.345Y-72.935
X130.345Y-108.935
X136.695Y-70.395
X136.695Y-106.395
X139.795Y-90.935
X146.145Y-88.395
X149.245Y-72.935
X149.245Y-108.935
X155.595Y-70.395
X155.595Y-106.395
X158.695Y-90.935
X165.045Y-88.395
X168.145Y-72.935
X168.145Y-108.935
X174.495Y-70.395
X174.495Y-106.395
X177.595Y-90.935
X183.945Y-88.395
X187.045Y-72.935
X187.045Y-108.935
X193.395Y-70.395
X193.395Y-106.395
X196.495Y-90.935
X202.845Y-88.395
X205.945Y-72.935
X205.945Y-108.935
X212.295Y-70.395
X212.295Y-106.395
X215.395Y-90.935
X221.745Y-88.395
X224.845Y-72.935
X224.845Y-108.935
X231.195Y-70.395
X231.195Y-106.395
X234.295Y-90.935
X240.645Y-88.395
X243.745Y-72.935
X243.745Y-108.935
X250.095Y-70.395
X250.095Y-106.395
T0
M30
