M48
; DRILL file {KiCad 7.0.7-7.0.7~ubuntu22.04.1} date Thu 21 Sep 2023 08:26:42 PM CEST
; FORMAT={-:-/ absolute / metric / decimal}
; #@! TF.CreationDate,2023-09-21T20:26:42+02:00
; #@! TF.GenerationSoftware,Kicad,Pcbnew,7.0.7-7.0.7~ubuntu22.04.1
; #@! TF.FileFunction,NonPlated,1,2,NPTH
FMAT,2
METRIC
; #@! TA.AperFunction,NonPlated,NPTH,ComponentDrill
T1C1.700
; #@! TA.AperFunction,NonPlated,NPTH,ComponentDrill
T2C3.200
; #@! TA.AperFunction,NonPlated,NPTH,ComponentDrill
T3C4.000
%
G90
G05
T1
X34.575Y-75.475
X34.575Y-111.475
X44.025Y-93.475
X44.735Y-75.475
X44.735Y-111.475
X53.475Y-75.475
X53.475Y-111.475
X54.185Y-93.475
X62.925Y-93.475
X63.635Y-75.475
X63.635Y-111.475
X72.375Y-75.475
X72.375Y-111.475
X73.085Y-93.475
X81.825Y-93.475
X82.535Y-75.475
X82.535Y-111.475
X91.275Y-75.475
X91.275Y-111.475
X91.985Y-93.475
X100.725Y-93.475
X101.435Y-75.475
X101.435Y-111.475
X110.175Y-75.475
X110.175Y-111.475
X110.885Y-93.475
X119.625Y-93.475
X120.335Y-75.475
X120.335Y-111.475
X129.075Y-75.475
X129.075Y-111.475
X129.785Y-93.475
X138.525Y-93.475
X139.235Y-75.475
X139.235Y-111.475
X147.975Y-75.475
X147.975Y-111.475
X148.685Y-93.475
X157.425Y-93.475
X158.135Y-75.475
X158.135Y-111.475
X166.875Y-75.475
X166.875Y-111.475
X167.585Y-93.475
X176.325Y-93.475
X177.035Y-75.475
X177.035Y-111.475
X185.775Y-75.475
X185.775Y-111.475
X186.485Y-93.475
X195.225Y-93.475
X195.935Y-75.475
X195.935Y-111.475
X204.675Y-75.475
X204.675Y-111.475
X205.385Y-93.475
X214.125Y-93.475
X214.835Y-75.475
X214.835Y-111.475
X223.575Y-75.475
X223.575Y-111.475
X224.285Y-93.475
X233.025Y-93.475
X233.735Y-75.475
X233.735Y-111.475
X242.475Y-75.475
X242.475Y-111.475
X243.185Y-93.475
X252.635Y-75.475
X252.635Y-111.475
T2
X27.13Y-34.0
X27.13Y-124.0
X260.13Y-34.0
X260.13Y-124.0
T3
X39.655Y-75.475
X39.655Y-111.475
X49.105Y-93.475
X58.555Y-75.475
X58.555Y-111.475
X68.005Y-93.475
X77.455Y-75.475
X77.455Y-111.475
X86.905Y-93.475
X96.355Y-75.475
X96.355Y-111.475
X105.805Y-93.475
X115.255Y-75.475
X115.255Y-111.475
X124.705Y-93.475
X134.155Y-75.475
X134.155Y-111.475
X143.605Y-93.475
X153.055Y-75.475
X153.055Y-111.475
X162.505Y-93.475
X171.955Y-75.475
X171.955Y-111.475
X181.405Y-93.475
X190.855Y-75.475
X190.855Y-111.475
X200.305Y-93.475
X209.755Y-75.475
X209.755Y-111.475
X219.205Y-93.475
X228.655Y-75.475
X228.655Y-111.475
X238.105Y-93.475
X247.555Y-75.475
X247.555Y-111.475
T0
M30
