%TF.GenerationSoftware,KiCad,Pcbnew,7.0.7-7.0.7~ubuntu22.04.1*%
%TF.CreationDate,2023-09-15T11:44:27+02:00*%
%TF.ProjectId,ek_right_hand_35_buttons,656b5f72-6967-4687-945f-68616e645f33,1.0*%
%TF.SameCoordinates,Original*%
%TF.FileFunction,Drillmap*%
%TF.FilePolarity,Positive*%
%FSLAX45Y45*%
G04 Gerber Fmt 4.5, Leading zero omitted, Abs format (unit mm)*
G04 Created by KiCad (PCBNEW 7.0.7-7.0.7~ubuntu22.04.1) date 2023-09-15 11:44:27*
%MOMM*%
%LPD*%
G01*
G04 APERTURE LIST*
%ADD10C,0.100000*%
%ADD11C,0.200000*%
%ADD12C,0.040000*%
%ADD13C,0.080000*%
%ADD14C,0.150000*%
G04 APERTURE END LIST*
D10*
X2213000Y-2900000D02*
X26513000Y-2900000D01*
X26513000Y-12900000D01*
X2213000Y-12900000D01*
X2213000Y-2900000D01*
D11*
D12*
X2630000Y-9530000D02*
X2670000Y-9570000D01*
X2670000Y-9530000D02*
X2630000Y-9570000D01*
X2650000Y-11790000D02*
X2690000Y-11830000D01*
X2690000Y-11790000D02*
X2650000Y-11830000D01*
X2700000Y-4030000D02*
X2740000Y-4070000D01*
X2740000Y-4030000D02*
X2700000Y-4070000D01*
X2710000Y-6620000D02*
X2750000Y-6660000D01*
X2750000Y-6620000D02*
X2710000Y-6660000D01*
X3200000Y-3300000D02*
X3240000Y-3340000D01*
X3240000Y-3300000D02*
X3200000Y-3340000D01*
X3237500Y-7026500D02*
X3277500Y-7066500D01*
X3277500Y-7026500D02*
X3237500Y-7066500D01*
X3240000Y-12380000D02*
X3280000Y-12420000D01*
X3280000Y-12380000D02*
X3240000Y-12420000D01*
X3280000Y-4090000D02*
X3320000Y-4130000D01*
X3320000Y-4090000D02*
X3280000Y-4130000D01*
X3308500Y-6627500D02*
X3348500Y-6667500D01*
X3348500Y-6627500D02*
X3308500Y-6667500D01*
X3560000Y-10370000D02*
X3600000Y-10410000D01*
X3600000Y-10370000D02*
X3560000Y-10410000D01*
X3570000Y-6820000D02*
X3610000Y-6860000D01*
X3610000Y-6820000D02*
X3570000Y-6860000D01*
X3820000Y-5470000D02*
X3860000Y-5510000D01*
X3860000Y-5470000D02*
X3820000Y-5510000D01*
X3850000Y-8650000D02*
X3890000Y-8690000D01*
X3890000Y-8650000D02*
X3850000Y-8690000D01*
X4200000Y-5470000D02*
X4240000Y-5510000D01*
X4240000Y-5470000D02*
X4200000Y-5510000D01*
X4500000Y-8620000D02*
X4540000Y-8660000D01*
X4540000Y-8620000D02*
X4500000Y-8660000D01*
X4570000Y-5480000D02*
X4610000Y-5520000D01*
X4610000Y-5480000D02*
X4570000Y-5520000D01*
X4600000Y-6390000D02*
X4640000Y-6430000D01*
X4640000Y-6390000D02*
X4600000Y-6430000D01*
X4888000Y-8192000D02*
X4928000Y-8232000D01*
X4928000Y-8192000D02*
X4888000Y-8232000D01*
X5290000Y-5480000D02*
X5330000Y-5520000D01*
X5330000Y-5480000D02*
X5290000Y-5520000D01*
X5300000Y-4165000D02*
X5340000Y-4205000D01*
X5340000Y-4165000D02*
X5300000Y-4205000D01*
X5440000Y-10350000D02*
X5480000Y-10390000D01*
X5480000Y-10350000D02*
X5440000Y-10390000D01*
X5580000Y-6570000D02*
X5620000Y-6610000D01*
X5620000Y-6570000D02*
X5580000Y-6610000D01*
X5610000Y-3240000D02*
X5650000Y-3280000D01*
X5650000Y-3240000D02*
X5610000Y-3280000D01*
X5690000Y-5000000D02*
X5730000Y-5040000D01*
X5730000Y-5000000D02*
X5690000Y-5040000D01*
X5940000Y-6220000D02*
X5980000Y-6260000D01*
X5980000Y-6220000D02*
X5940000Y-6260000D01*
X6030000Y-5520000D02*
X6070000Y-5560000D01*
X6070000Y-5520000D02*
X6030000Y-5560000D01*
X6400000Y-8610000D02*
X6440000Y-8650000D01*
X6440000Y-8610000D02*
X6400000Y-8650000D01*
X6480000Y-5120000D02*
X6520000Y-5160000D01*
X6520000Y-5120000D02*
X6480000Y-5160000D01*
X6680000Y-5520000D02*
X6720000Y-5560000D01*
X6720000Y-5520000D02*
X6680000Y-5560000D01*
X6784000Y-8224000D02*
X6824000Y-8264000D01*
X6824000Y-8224000D02*
X6784000Y-8264000D01*
X6790000Y-12470000D02*
X6830000Y-12510000D01*
X6830000Y-12470000D02*
X6790000Y-12510000D01*
X7170000Y-6160000D02*
X7210000Y-6200000D01*
X7210000Y-6160000D02*
X7170000Y-6200000D01*
X7180000Y-5470000D02*
X7220000Y-5510000D01*
X7220000Y-5470000D02*
X7180000Y-5510000D01*
X7330000Y-10370000D02*
X7370000Y-10410000D01*
X7370000Y-10370000D02*
X7330000Y-10410000D01*
X7340000Y-6740000D02*
X7380000Y-6780000D01*
X7380000Y-6740000D02*
X7340000Y-6780000D01*
X7560000Y-5470000D02*
X7600000Y-5510000D01*
X7600000Y-5470000D02*
X7560000Y-5510000D01*
X7720000Y-4975000D02*
X7760000Y-5015000D01*
X7760000Y-4975000D02*
X7720000Y-5015000D01*
X7930000Y-5470000D02*
X7970000Y-5510000D01*
X7970000Y-5470000D02*
X7930000Y-5510000D01*
X7940000Y-5990000D02*
X7980000Y-6030000D01*
X7980000Y-5990000D02*
X7940000Y-6030000D01*
X8280000Y-3260000D02*
X8320000Y-3300000D01*
X8320000Y-3260000D02*
X8280000Y-3300000D01*
X8280000Y-8610000D02*
X8320000Y-8650000D01*
X8320000Y-8610000D02*
X8280000Y-8650000D01*
X8310000Y-6430000D02*
X8350000Y-6470000D01*
X8350000Y-6430000D02*
X8310000Y-6470000D01*
X8660000Y-5470000D02*
X8700000Y-5510000D01*
X8700000Y-5470000D02*
X8660000Y-5510000D01*
X8664218Y-8210782D02*
X8704218Y-8250782D01*
X8704218Y-8210782D02*
X8664218Y-8250782D01*
X9030000Y-5480000D02*
X9070000Y-5520000D01*
X9070000Y-5480000D02*
X9030000Y-5520000D01*
X9220000Y-6760000D02*
X9260000Y-6800000D01*
X9260000Y-6760000D02*
X9220000Y-6800000D01*
X9230000Y-10330000D02*
X9270000Y-10370000D01*
X9270000Y-10330000D02*
X9230000Y-10370000D01*
X9410000Y-5480000D02*
X9450000Y-5520000D01*
X9450000Y-5480000D02*
X9410000Y-5520000D01*
X9410000Y-5700000D02*
X9450000Y-5740000D01*
X9450000Y-5700000D02*
X9410000Y-5740000D01*
X9660000Y-6050000D02*
X9700000Y-6090000D01*
X9700000Y-6050000D02*
X9660000Y-6090000D01*
X10050000Y-5140000D02*
X10090000Y-5180000D01*
X10090000Y-5140000D02*
X10050000Y-5180000D01*
X10110000Y-5490000D02*
X10150000Y-5530000D01*
X10150000Y-5490000D02*
X10110000Y-5530000D01*
X10190000Y-8620000D02*
X10230000Y-8660000D01*
X10230000Y-8620000D02*
X10190000Y-8660000D01*
X10440000Y-3220000D02*
X10480000Y-3260000D01*
X10480000Y-3220000D02*
X10440000Y-3260000D01*
X10520000Y-5000000D02*
X10560000Y-5040000D01*
X10560000Y-5000000D02*
X10520000Y-5040000D01*
X10559000Y-8184000D02*
X10599000Y-8224000D01*
X10599000Y-8184000D02*
X10559000Y-8224000D01*
X10570000Y-12420000D02*
X10610000Y-12460000D01*
X10610000Y-12420000D02*
X10570000Y-12460000D01*
X10740000Y-6210000D02*
X10780000Y-6250000D01*
X10780000Y-6210000D02*
X10740000Y-6250000D01*
X10860000Y-5600000D02*
X10900000Y-5640000D01*
X10900000Y-5600000D02*
X10860000Y-5640000D01*
X11100000Y-6810000D02*
X11140000Y-6850000D01*
X11140000Y-6810000D02*
X11100000Y-6850000D01*
X11120000Y-10320000D02*
X11160000Y-10360000D01*
X11160000Y-10320000D02*
X11120000Y-10360000D01*
X11280000Y-5130000D02*
X11320000Y-5170000D01*
X11320000Y-5130000D02*
X11280000Y-5170000D01*
X11605000Y-5465000D02*
X11645000Y-5505000D01*
X11645000Y-5465000D02*
X11605000Y-5505000D01*
X12030000Y-5450000D02*
X12070000Y-5490000D01*
X12070000Y-5450000D02*
X12030000Y-5490000D01*
X12090000Y-8590000D02*
X12130000Y-8630000D01*
X12130000Y-8590000D02*
X12090000Y-8630000D01*
X12390000Y-5460000D02*
X12430000Y-5500000D01*
X12430000Y-5460000D02*
X12390000Y-5500000D01*
X12400000Y-5790000D02*
X12440000Y-5830000D01*
X12440000Y-5790000D02*
X12400000Y-5830000D01*
X12452000Y-8187000D02*
X12492000Y-8227000D01*
X12492000Y-8187000D02*
X12452000Y-8227000D01*
X12575000Y-5025000D02*
X12615000Y-5065000D01*
X12615000Y-5025000D02*
X12575000Y-5065000D01*
X12760000Y-5460000D02*
X12800000Y-5500000D01*
X12800000Y-5460000D02*
X12760000Y-5500000D01*
X12980000Y-10340000D02*
X13020000Y-10380000D01*
X13020000Y-10340000D02*
X12980000Y-10380000D01*
X13010000Y-6840000D02*
X13050000Y-6880000D01*
X13050000Y-6840000D02*
X13010000Y-6880000D01*
X13140000Y-3260000D02*
X13180000Y-3300000D01*
X13180000Y-3260000D02*
X13140000Y-3300000D01*
X13500000Y-5470000D02*
X13540000Y-5510000D01*
X13540000Y-5470000D02*
X13500000Y-5510000D01*
X13540000Y-6220000D02*
X13580000Y-6260000D01*
X13580000Y-6220000D02*
X13540000Y-6260000D01*
X13880000Y-5470000D02*
X13920000Y-5510000D01*
X13920000Y-5470000D02*
X13880000Y-5510000D01*
X13960000Y-8600000D02*
X14000000Y-8640000D01*
X14000000Y-8600000D02*
X13960000Y-8640000D01*
X14190000Y-5710000D02*
X14230000Y-5750000D01*
X14230000Y-5710000D02*
X14190000Y-5750000D01*
X14250000Y-5460000D02*
X14290000Y-5500000D01*
X14290000Y-5460000D02*
X14250000Y-5500000D01*
X14340000Y-12420000D02*
X14380000Y-12460000D01*
X14380000Y-12420000D02*
X14340000Y-12460000D01*
X14347000Y-8192000D02*
X14387000Y-8232000D01*
X14387000Y-8192000D02*
X14347000Y-8232000D01*
X14570000Y-5690000D02*
X14610000Y-5730000D01*
X14610000Y-5690000D02*
X14570000Y-5730000D01*
X14880000Y-10340000D02*
X14920000Y-10380000D01*
X14920000Y-10340000D02*
X14880000Y-10380000D01*
X14900000Y-5140000D02*
X14940000Y-5180000D01*
X14940000Y-5140000D02*
X14900000Y-5180000D01*
X14970000Y-5460000D02*
X15010000Y-5500000D01*
X15010000Y-5460000D02*
X14970000Y-5500000D01*
X15010000Y-6720000D02*
X15050000Y-6760000D01*
X15050000Y-6720000D02*
X15010000Y-6760000D01*
X15270000Y-3260000D02*
X15310000Y-3300000D01*
X15310000Y-3260000D02*
X15270000Y-3300000D01*
X15360000Y-5020000D02*
X15400000Y-5060000D01*
X15400000Y-5020000D02*
X15360000Y-5060000D01*
X15570000Y-6210000D02*
X15610000Y-6250000D01*
X15610000Y-6210000D02*
X15570000Y-6250000D01*
X15700000Y-5560000D02*
X15740000Y-5600000D01*
X15740000Y-5560000D02*
X15700000Y-5600000D01*
X15860000Y-8620000D02*
X15900000Y-8660000D01*
X15900000Y-8620000D02*
X15860000Y-8660000D01*
X16180000Y-5090000D02*
X16220000Y-5130000D01*
X16220000Y-5090000D02*
X16180000Y-5130000D01*
X16207500Y-8202500D02*
X16247500Y-8242500D01*
X16247500Y-8202500D02*
X16207500Y-8242500D01*
X16405000Y-5475000D02*
X16445000Y-5515000D01*
X16445000Y-5475000D02*
X16405000Y-5515000D01*
X16770000Y-10330000D02*
X16810000Y-10370000D01*
X16810000Y-10330000D02*
X16770000Y-10370000D01*
X16800000Y-6830000D02*
X16840000Y-6870000D01*
X16840000Y-6830000D02*
X16800000Y-6870000D01*
X16860000Y-5470000D02*
X16900000Y-5510000D01*
X16900000Y-5470000D02*
X16860000Y-5510000D01*
X17240000Y-5480000D02*
X17280000Y-5520000D01*
X17280000Y-5480000D02*
X17240000Y-5520000D01*
X17420000Y-5075000D02*
X17460000Y-5115000D01*
X17460000Y-5075000D02*
X17420000Y-5115000D01*
X17600000Y-5470000D02*
X17640000Y-5510000D01*
X17640000Y-5470000D02*
X17600000Y-5510000D01*
X17625000Y-6065000D02*
X17665000Y-6105000D01*
X17665000Y-6065000D02*
X17625000Y-6105000D01*
X17720000Y-8600000D02*
X17760000Y-8640000D01*
X17760000Y-8600000D02*
X17720000Y-8640000D01*
X17970000Y-3250000D02*
X18010000Y-3290000D01*
X18010000Y-3250000D02*
X17970000Y-3290000D01*
X18123000Y-8184000D02*
X18163000Y-8224000D01*
X18163000Y-8184000D02*
X18123000Y-8224000D01*
X18150000Y-12480000D02*
X18190000Y-12520000D01*
X18190000Y-12480000D02*
X18150000Y-12520000D01*
X18340000Y-5470000D02*
X18380000Y-5510000D01*
X18380000Y-5470000D02*
X18340000Y-5510000D01*
X18670000Y-10370000D02*
X18710000Y-10410000D01*
X18710000Y-10370000D02*
X18670000Y-10410000D01*
X18680000Y-6770000D02*
X18720000Y-6810000D01*
X18720000Y-6770000D02*
X18680000Y-6810000D01*
X18710000Y-5470000D02*
X18750000Y-5510000D01*
X18750000Y-5470000D02*
X18710000Y-5510000D01*
X19080000Y-5470000D02*
X19120000Y-5510000D01*
X19120000Y-5470000D02*
X19080000Y-5510000D01*
X19125000Y-5920000D02*
X19165000Y-5960000D01*
X19165000Y-5920000D02*
X19125000Y-5960000D01*
X19600000Y-8590000D02*
X19640000Y-8630000D01*
X19640000Y-8590000D02*
X19600000Y-8630000D01*
X19740000Y-5130000D02*
X19780000Y-5170000D01*
X19780000Y-5130000D02*
X19740000Y-5170000D01*
X19800000Y-5450000D02*
X19840000Y-5490000D01*
X19840000Y-5450000D02*
X19800000Y-5490000D01*
X19980000Y-3250000D02*
X20020000Y-3290000D01*
X20020000Y-3250000D02*
X19980000Y-3290000D01*
X20008000Y-8176000D02*
X20048000Y-8216000D01*
X20048000Y-8176000D02*
X20008000Y-8216000D01*
X20190000Y-5030000D02*
X20230000Y-5070000D01*
X20230000Y-5030000D02*
X20190000Y-5070000D01*
X20420000Y-6200000D02*
X20460000Y-6240000D01*
X20460000Y-6200000D02*
X20420000Y-6240000D01*
X20560000Y-5470000D02*
X20600000Y-5510000D01*
X20600000Y-5470000D02*
X20560000Y-5510000D01*
X20560000Y-10390000D02*
X20600000Y-10430000D01*
X20600000Y-10390000D02*
X20560000Y-10430000D01*
X20570000Y-6840000D02*
X20610000Y-6880000D01*
X20610000Y-6840000D02*
X20570000Y-6880000D01*
X20950000Y-5130000D02*
X20990000Y-5170000D01*
X20990000Y-5130000D02*
X20950000Y-5170000D01*
X21245000Y-5500000D02*
X21285000Y-5540000D01*
X21285000Y-5500000D02*
X21245000Y-5540000D01*
X21520000Y-8610000D02*
X21560000Y-8650000D01*
X21560000Y-8610000D02*
X21520000Y-8650000D01*
X21710000Y-5470000D02*
X21750000Y-5510000D01*
X21750000Y-5470000D02*
X21710000Y-5510000D01*
X21730000Y-5680000D02*
X21770000Y-5720000D01*
X21770000Y-5680000D02*
X21730000Y-5720000D01*
X21840000Y-8185000D02*
X21880000Y-8225000D01*
X21880000Y-8185000D02*
X21840000Y-8225000D01*
X21920000Y-12480000D02*
X21960000Y-12520000D01*
X21960000Y-12480000D02*
X21920000Y-12520000D01*
X22080000Y-5470000D02*
X22120000Y-5510000D01*
X22120000Y-5470000D02*
X22080000Y-5510000D01*
X22230000Y-5095000D02*
X22270000Y-5135000D01*
X22270000Y-5095000D02*
X22230000Y-5135000D01*
X22450000Y-5470000D02*
X22490000Y-5510000D01*
X22490000Y-5470000D02*
X22450000Y-5510000D01*
X22450000Y-10320000D02*
X22490000Y-10360000D01*
X22490000Y-10320000D02*
X22450000Y-10360000D01*
X22510000Y-6870000D02*
X22550000Y-6910000D01*
X22550000Y-6870000D02*
X22510000Y-6910000D01*
X22630000Y-3240000D02*
X22670000Y-3280000D01*
X22670000Y-3240000D02*
X22630000Y-3280000D01*
X22825000Y-5695000D02*
X22865000Y-5735000D01*
X22865000Y-5695000D02*
X22825000Y-5735000D01*
X23180000Y-5480000D02*
X23220000Y-5520000D01*
X23220000Y-5480000D02*
X23180000Y-5520000D01*
X23550000Y-5475000D02*
X23590000Y-5515000D01*
X23590000Y-5475000D02*
X23550000Y-5515000D01*
X23670000Y-6360000D02*
X23710000Y-6400000D01*
X23710000Y-6360000D02*
X23670000Y-6400000D01*
X23791500Y-8187500D02*
X23831500Y-8227500D01*
X23831500Y-8187500D02*
X23791500Y-8227500D01*
X24240000Y-5070000D02*
X24280000Y-5110000D01*
X24280000Y-5070000D02*
X24240000Y-5110000D01*
X24280000Y-5460000D02*
X24320000Y-5500000D01*
X24320000Y-5460000D02*
X24280000Y-5500000D01*
X24285000Y-6745000D02*
X24325000Y-6785000D01*
X24325000Y-6745000D02*
X24285000Y-6785000D01*
X24340000Y-6160000D02*
X24380000Y-6200000D01*
X24380000Y-6160000D02*
X24340000Y-6200000D01*
X24890000Y-6210000D02*
X24930000Y-6250000D01*
X24930000Y-6210000D02*
X24890000Y-6250000D01*
X25000000Y-5490000D02*
X25040000Y-5530000D01*
X25040000Y-5490000D02*
X25000000Y-5530000D01*
X25120000Y-3250000D02*
X25160000Y-3290000D01*
X25160000Y-3250000D02*
X25120000Y-3290000D01*
X25125000Y-6435000D02*
X25165000Y-6475000D01*
X25165000Y-6435000D02*
X25125000Y-6475000D01*
X25320000Y-12400000D02*
X25360000Y-12440000D01*
X25360000Y-12400000D02*
X25320000Y-12440000D01*
X25920000Y-11690000D02*
X25960000Y-11730000D01*
X25960000Y-11690000D02*
X25920000Y-11730000D01*
X25980000Y-4070000D02*
X26020000Y-4110000D01*
X26020000Y-4070000D02*
X25980000Y-4110000D01*
X25980000Y-9260000D02*
X26020000Y-9300000D01*
X26020000Y-9260000D02*
X25980000Y-9300000D01*
X26010000Y-6510000D02*
X26050000Y-6550000D01*
X26050000Y-6510000D02*
X26010000Y-6550000D01*
D13*
X3700500Y-4559000D02*
G75*
G03*
X3700500Y-4559000I-40000J0D01*
G01*
X3700500Y-5575000D02*
G75*
G03*
X3700500Y-5575000I-40000J0D01*
G01*
X4070500Y-4559000D02*
G75*
G03*
X4070500Y-4559000I-40000J0D01*
G01*
X4070500Y-5575000D02*
G75*
G03*
X4070500Y-5575000I-40000J0D01*
G01*
X4443500Y-4553500D02*
G75*
G03*
X4443500Y-4553500I-40000J0D01*
G01*
X4443500Y-5569500D02*
G75*
G03*
X4443500Y-5569500I-40000J0D01*
G01*
X4810500Y-4559000D02*
G75*
G03*
X4810500Y-4559000I-40000J0D01*
G01*
X4810500Y-5575000D02*
G75*
G03*
X4810500Y-5575000I-40000J0D01*
G01*
X5543500Y-3801000D02*
G75*
G03*
X5543500Y-3801000I-40000J0D01*
G01*
X5543500Y-4055000D02*
G75*
G03*
X5543500Y-4055000I-40000J0D01*
G01*
X5543500Y-4309000D02*
G75*
G03*
X5543500Y-4309000I-40000J0D01*
G01*
X5543500Y-4563000D02*
G75*
G03*
X5543500Y-4563000I-40000J0D01*
G01*
X5543500Y-4817000D02*
G75*
G03*
X5543500Y-4817000I-40000J0D01*
G01*
X5543500Y-5071000D02*
G75*
G03*
X5543500Y-5071000I-40000J0D01*
G01*
X5543500Y-5325000D02*
G75*
G03*
X5543500Y-5325000I-40000J0D01*
G01*
X5543500Y-5579000D02*
G75*
G03*
X5543500Y-5579000I-40000J0D01*
G01*
X5543500Y-5979000D02*
G75*
G03*
X5543500Y-5979000I-40000J0D01*
G01*
X6043500Y-5979000D02*
G75*
G03*
X6043500Y-5979000I-40000J0D01*
G01*
X6305500Y-3801000D02*
G75*
G03*
X6305500Y-3801000I-40000J0D01*
G01*
X6305500Y-4055000D02*
G75*
G03*
X6305500Y-4055000I-40000J0D01*
G01*
X6305500Y-4309000D02*
G75*
G03*
X6305500Y-4309000I-40000J0D01*
G01*
X6305500Y-4563000D02*
G75*
G03*
X6305500Y-4563000I-40000J0D01*
G01*
X6305500Y-4817000D02*
G75*
G03*
X6305500Y-4817000I-40000J0D01*
G01*
X6305500Y-5071000D02*
G75*
G03*
X6305500Y-5071000I-40000J0D01*
G01*
X6305500Y-5325000D02*
G75*
G03*
X6305500Y-5325000I-40000J0D01*
G01*
X6305500Y-5579000D02*
G75*
G03*
X6305500Y-5579000I-40000J0D01*
G01*
X7060500Y-4559000D02*
G75*
G03*
X7060500Y-4559000I-40000J0D01*
G01*
X7060500Y-5575000D02*
G75*
G03*
X7060500Y-5575000I-40000J0D01*
G01*
X7430500Y-4559000D02*
G75*
G03*
X7430500Y-4559000I-40000J0D01*
G01*
X7430500Y-5575000D02*
G75*
G03*
X7430500Y-5575000I-40000J0D01*
G01*
X7800500Y-4559000D02*
G75*
G03*
X7800500Y-4559000I-40000J0D01*
G01*
X7800500Y-5575000D02*
G75*
G03*
X7800500Y-5575000I-40000J0D01*
G01*
X8170500Y-4559000D02*
G75*
G03*
X8170500Y-4559000I-40000J0D01*
G01*
X8170500Y-5575000D02*
G75*
G03*
X8170500Y-5575000I-40000J0D01*
G01*
X8540500Y-4559000D02*
G75*
G03*
X8540500Y-4559000I-40000J0D01*
G01*
X8540500Y-5575000D02*
G75*
G03*
X8540500Y-5575000I-40000J0D01*
G01*
X8910500Y-4559000D02*
G75*
G03*
X8910500Y-4559000I-40000J0D01*
G01*
X8910500Y-5575000D02*
G75*
G03*
X8910500Y-5575000I-40000J0D01*
G01*
X9280500Y-4559000D02*
G75*
G03*
X9280500Y-4559000I-40000J0D01*
G01*
X9280500Y-5575000D02*
G75*
G03*
X9280500Y-5575000I-40000J0D01*
G01*
X9650500Y-4559000D02*
G75*
G03*
X9650500Y-4559000I-40000J0D01*
G01*
X9650500Y-5575000D02*
G75*
G03*
X9650500Y-5575000I-40000J0D01*
G01*
X10363500Y-3801000D02*
G75*
G03*
X10363500Y-3801000I-40000J0D01*
G01*
X10363500Y-4055000D02*
G75*
G03*
X10363500Y-4055000I-40000J0D01*
G01*
X10363500Y-4309000D02*
G75*
G03*
X10363500Y-4309000I-40000J0D01*
G01*
X10363500Y-4563000D02*
G75*
G03*
X10363500Y-4563000I-40000J0D01*
G01*
X10363500Y-4817000D02*
G75*
G03*
X10363500Y-4817000I-40000J0D01*
G01*
X10363500Y-5071000D02*
G75*
G03*
X10363500Y-5071000I-40000J0D01*
G01*
X10363500Y-5325000D02*
G75*
G03*
X10363500Y-5325000I-40000J0D01*
G01*
X10363500Y-5579000D02*
G75*
G03*
X10363500Y-5579000I-40000J0D01*
G01*
X10363500Y-5979000D02*
G75*
G03*
X10363500Y-5979000I-40000J0D01*
G01*
X10863500Y-5979000D02*
G75*
G03*
X10863500Y-5979000I-40000J0D01*
G01*
X11125500Y-3801000D02*
G75*
G03*
X11125500Y-3801000I-40000J0D01*
G01*
X11125500Y-4055000D02*
G75*
G03*
X11125500Y-4055000I-40000J0D01*
G01*
X11125500Y-4309000D02*
G75*
G03*
X11125500Y-4309000I-40000J0D01*
G01*
X11125500Y-4563000D02*
G75*
G03*
X11125500Y-4563000I-40000J0D01*
G01*
X11125500Y-4817000D02*
G75*
G03*
X11125500Y-4817000I-40000J0D01*
G01*
X11125500Y-5071000D02*
G75*
G03*
X11125500Y-5071000I-40000J0D01*
G01*
X11125500Y-5325000D02*
G75*
G03*
X11125500Y-5325000I-40000J0D01*
G01*
X11125500Y-5579000D02*
G75*
G03*
X11125500Y-5579000I-40000J0D01*
G01*
X11900500Y-4559000D02*
G75*
G03*
X11900500Y-4559000I-40000J0D01*
G01*
X11900500Y-5575000D02*
G75*
G03*
X11900500Y-5575000I-40000J0D01*
G01*
X12270500Y-4559000D02*
G75*
G03*
X12270500Y-4559000I-40000J0D01*
G01*
X12270500Y-5575000D02*
G75*
G03*
X12270500Y-5575000I-40000J0D01*
G01*
X12640500Y-4559000D02*
G75*
G03*
X12640500Y-4559000I-40000J0D01*
G01*
X12640500Y-5575000D02*
G75*
G03*
X12640500Y-5575000I-40000J0D01*
G01*
X13010500Y-4559000D02*
G75*
G03*
X13010500Y-4559000I-40000J0D01*
G01*
X13010500Y-5575000D02*
G75*
G03*
X13010500Y-5575000I-40000J0D01*
G01*
X13380500Y-4559000D02*
G75*
G03*
X13380500Y-4559000I-40000J0D01*
G01*
X13380500Y-5575000D02*
G75*
G03*
X13380500Y-5575000I-40000J0D01*
G01*
X13750500Y-4559000D02*
G75*
G03*
X13750500Y-4559000I-40000J0D01*
G01*
X13750500Y-5575000D02*
G75*
G03*
X13750500Y-5575000I-40000J0D01*
G01*
X14120500Y-4559000D02*
G75*
G03*
X14120500Y-4559000I-40000J0D01*
G01*
X14120500Y-5575000D02*
G75*
G03*
X14120500Y-5575000I-40000J0D01*
G01*
X14490500Y-4559000D02*
G75*
G03*
X14490500Y-4559000I-40000J0D01*
G01*
X14490500Y-5575000D02*
G75*
G03*
X14490500Y-5575000I-40000J0D01*
G01*
X15203500Y-3801000D02*
G75*
G03*
X15203500Y-3801000I-40000J0D01*
G01*
X15203500Y-4055000D02*
G75*
G03*
X15203500Y-4055000I-40000J0D01*
G01*
X15203500Y-4309000D02*
G75*
G03*
X15203500Y-4309000I-40000J0D01*
G01*
X15203500Y-4563000D02*
G75*
G03*
X15203500Y-4563000I-40000J0D01*
G01*
X15203500Y-4817000D02*
G75*
G03*
X15203500Y-4817000I-40000J0D01*
G01*
X15203500Y-5071000D02*
G75*
G03*
X15203500Y-5071000I-40000J0D01*
G01*
X15203500Y-5325000D02*
G75*
G03*
X15203500Y-5325000I-40000J0D01*
G01*
X15203500Y-5579000D02*
G75*
G03*
X15203500Y-5579000I-40000J0D01*
G01*
X15203500Y-5979000D02*
G75*
G03*
X15203500Y-5979000I-40000J0D01*
G01*
X15703500Y-5979000D02*
G75*
G03*
X15703500Y-5979000I-40000J0D01*
G01*
X15965500Y-3801000D02*
G75*
G03*
X15965500Y-3801000I-40000J0D01*
G01*
X15965500Y-4055000D02*
G75*
G03*
X15965500Y-4055000I-40000J0D01*
G01*
X15965500Y-4309000D02*
G75*
G03*
X15965500Y-4309000I-40000J0D01*
G01*
X15965500Y-4563000D02*
G75*
G03*
X15965500Y-4563000I-40000J0D01*
G01*
X15965500Y-4817000D02*
G75*
G03*
X15965500Y-4817000I-40000J0D01*
G01*
X15965500Y-5071000D02*
G75*
G03*
X15965500Y-5071000I-40000J0D01*
G01*
X15965500Y-5325000D02*
G75*
G03*
X15965500Y-5325000I-40000J0D01*
G01*
X15965500Y-5579000D02*
G75*
G03*
X15965500Y-5579000I-40000J0D01*
G01*
X16740500Y-4559000D02*
G75*
G03*
X16740500Y-4559000I-40000J0D01*
G01*
X16740500Y-5575000D02*
G75*
G03*
X16740500Y-5575000I-40000J0D01*
G01*
X17110500Y-4559000D02*
G75*
G03*
X17110500Y-4559000I-40000J0D01*
G01*
X17110500Y-5575000D02*
G75*
G03*
X17110500Y-5575000I-40000J0D01*
G01*
X17480500Y-4559000D02*
G75*
G03*
X17480500Y-4559000I-40000J0D01*
G01*
X17480500Y-5575000D02*
G75*
G03*
X17480500Y-5575000I-40000J0D01*
G01*
X17850500Y-4559000D02*
G75*
G03*
X17850500Y-4559000I-40000J0D01*
G01*
X17850500Y-5575000D02*
G75*
G03*
X17850500Y-5575000I-40000J0D01*
G01*
X18220500Y-4559000D02*
G75*
G03*
X18220500Y-4559000I-40000J0D01*
G01*
X18220500Y-5575000D02*
G75*
G03*
X18220500Y-5575000I-40000J0D01*
G01*
X18590500Y-4559000D02*
G75*
G03*
X18590500Y-4559000I-40000J0D01*
G01*
X18590500Y-5575000D02*
G75*
G03*
X18590500Y-5575000I-40000J0D01*
G01*
X18960500Y-4559000D02*
G75*
G03*
X18960500Y-4559000I-40000J0D01*
G01*
X18960500Y-5575000D02*
G75*
G03*
X18960500Y-5575000I-40000J0D01*
G01*
X19330500Y-4559000D02*
G75*
G03*
X19330500Y-4559000I-40000J0D01*
G01*
X19330500Y-5575000D02*
G75*
G03*
X19330500Y-5575000I-40000J0D01*
G01*
X20043500Y-3801000D02*
G75*
G03*
X20043500Y-3801000I-40000J0D01*
G01*
X20043500Y-4055000D02*
G75*
G03*
X20043500Y-4055000I-40000J0D01*
G01*
X20043500Y-4309000D02*
G75*
G03*
X20043500Y-4309000I-40000J0D01*
G01*
X20043500Y-4563000D02*
G75*
G03*
X20043500Y-4563000I-40000J0D01*
G01*
X20043500Y-4817000D02*
G75*
G03*
X20043500Y-4817000I-40000J0D01*
G01*
X20043500Y-5071000D02*
G75*
G03*
X20043500Y-5071000I-40000J0D01*
G01*
X20043500Y-5325000D02*
G75*
G03*
X20043500Y-5325000I-40000J0D01*
G01*
X20043500Y-5579000D02*
G75*
G03*
X20043500Y-5579000I-40000J0D01*
G01*
X20043500Y-5979000D02*
G75*
G03*
X20043500Y-5979000I-40000J0D01*
G01*
X20543500Y-5979000D02*
G75*
G03*
X20543500Y-5979000I-40000J0D01*
G01*
X20805500Y-3801000D02*
G75*
G03*
X20805500Y-3801000I-40000J0D01*
G01*
X20805500Y-4055000D02*
G75*
G03*
X20805500Y-4055000I-40000J0D01*
G01*
X20805500Y-4309000D02*
G75*
G03*
X20805500Y-4309000I-40000J0D01*
G01*
X20805500Y-4563000D02*
G75*
G03*
X20805500Y-4563000I-40000J0D01*
G01*
X20805500Y-4817000D02*
G75*
G03*
X20805500Y-4817000I-40000J0D01*
G01*
X20805500Y-5071000D02*
G75*
G03*
X20805500Y-5071000I-40000J0D01*
G01*
X20805500Y-5325000D02*
G75*
G03*
X20805500Y-5325000I-40000J0D01*
G01*
X20805500Y-5579000D02*
G75*
G03*
X20805500Y-5579000I-40000J0D01*
G01*
X21580500Y-4559000D02*
G75*
G03*
X21580500Y-4559000I-40000J0D01*
G01*
X21580500Y-5575000D02*
G75*
G03*
X21580500Y-5575000I-40000J0D01*
G01*
X21950500Y-4559000D02*
G75*
G03*
X21950500Y-4559000I-40000J0D01*
G01*
X21950500Y-5575000D02*
G75*
G03*
X21950500Y-5575000I-40000J0D01*
G01*
X22320500Y-4559000D02*
G75*
G03*
X22320500Y-4559000I-40000J0D01*
G01*
X22320500Y-5575000D02*
G75*
G03*
X22320500Y-5575000I-40000J0D01*
G01*
X22690500Y-4559000D02*
G75*
G03*
X22690500Y-4559000I-40000J0D01*
G01*
X22690500Y-5575000D02*
G75*
G03*
X22690500Y-5575000I-40000J0D01*
G01*
X23060500Y-4559000D02*
G75*
G03*
X23060500Y-4559000I-40000J0D01*
G01*
X23060500Y-5575000D02*
G75*
G03*
X23060500Y-5575000I-40000J0D01*
G01*
X23430500Y-4559000D02*
G75*
G03*
X23430500Y-4559000I-40000J0D01*
G01*
X23430500Y-5575000D02*
G75*
G03*
X23430500Y-5575000I-40000J0D01*
G01*
X23800500Y-4559000D02*
G75*
G03*
X23800500Y-4559000I-40000J0D01*
G01*
X23800500Y-5575000D02*
G75*
G03*
X23800500Y-5575000I-40000J0D01*
G01*
X24483500Y-3801000D02*
G75*
G03*
X24483500Y-3801000I-40000J0D01*
G01*
X24483500Y-4055000D02*
G75*
G03*
X24483500Y-4055000I-40000J0D01*
G01*
X24483500Y-4309000D02*
G75*
G03*
X24483500Y-4309000I-40000J0D01*
G01*
X24483500Y-4563000D02*
G75*
G03*
X24483500Y-4563000I-40000J0D01*
G01*
X24483500Y-4817000D02*
G75*
G03*
X24483500Y-4817000I-40000J0D01*
G01*
X24483500Y-5071000D02*
G75*
G03*
X24483500Y-5071000I-40000J0D01*
G01*
X24483500Y-5325000D02*
G75*
G03*
X24483500Y-5325000I-40000J0D01*
G01*
X24483500Y-5579000D02*
G75*
G03*
X24483500Y-5579000I-40000J0D01*
G01*
X24483500Y-5979000D02*
G75*
G03*
X24483500Y-5979000I-40000J0D01*
G01*
X24983500Y-5979000D02*
G75*
G03*
X24983500Y-5979000I-40000J0D01*
G01*
X25245500Y-3801000D02*
G75*
G03*
X25245500Y-3801000I-40000J0D01*
G01*
X25245500Y-4055000D02*
G75*
G03*
X25245500Y-4055000I-40000J0D01*
G01*
X25245500Y-4309000D02*
G75*
G03*
X25245500Y-4309000I-40000J0D01*
G01*
X25245500Y-4563000D02*
G75*
G03*
X25245500Y-4563000I-40000J0D01*
G01*
X25245500Y-4817000D02*
G75*
G03*
X25245500Y-4817000I-40000J0D01*
G01*
X25245500Y-5071000D02*
G75*
G03*
X25245500Y-5071000I-40000J0D01*
G01*
X25245500Y-5325000D02*
G75*
G03*
X25245500Y-5325000I-40000J0D01*
G01*
X25245500Y-5579000D02*
G75*
G03*
X25245500Y-5579000I-40000J0D01*
G01*
D10*
X3467500Y-3820500D02*
X3467500Y-3920500D01*
X3417500Y-3870500D02*
X3517500Y-3870500D01*
X3721500Y-3820500D02*
X3721500Y-3920500D01*
X3671500Y-3870500D02*
X3771500Y-3870500D01*
X3975500Y-3820500D02*
X3975500Y-3920500D01*
X3925500Y-3870500D02*
X4025500Y-3870500D01*
X4229500Y-3820500D02*
X4229500Y-3920500D01*
X4179500Y-3870500D02*
X4279500Y-3870500D01*
X4483500Y-3820500D02*
X4483500Y-3920500D01*
X4433500Y-3870500D02*
X4533500Y-3870500D01*
X4737500Y-3820500D02*
X4737500Y-3920500D01*
X4687500Y-3870500D02*
X4787500Y-3870500D01*
D14*
X3637533Y-7346533D02*
X3637533Y-7240466D01*
X3531466Y-7240466D01*
X3531466Y-7346533D01*
X3637533Y-7346533D01*
X3637533Y-10946534D02*
X3637533Y-10840467D01*
X3531466Y-10840467D01*
X3531466Y-10946534D01*
X3637533Y-10946534D01*
X4272534Y-7092533D02*
X4272534Y-6986466D01*
X4166466Y-6986466D01*
X4166466Y-7092533D01*
X4272534Y-7092533D01*
X4272534Y-10692534D02*
X4272534Y-10586467D01*
X4166466Y-10586467D01*
X4166466Y-10692534D01*
X4272534Y-10692534D01*
X4582534Y-9146534D02*
X4582534Y-9040467D01*
X4476467Y-9040467D01*
X4476467Y-9146534D01*
X4582534Y-9146534D01*
X5217534Y-8892534D02*
X5217534Y-8786467D01*
X5111467Y-8786467D01*
X5111467Y-8892534D01*
X5217534Y-8892534D01*
X5527534Y-7346533D02*
X5527534Y-7240466D01*
X5421467Y-7240466D01*
X5421467Y-7346533D01*
X5527534Y-7346533D01*
X5527534Y-10946534D02*
X5527534Y-10840467D01*
X5421467Y-10840467D01*
X5421467Y-10946534D01*
X5527534Y-10946534D01*
X6162533Y-7092533D02*
X6162533Y-6986466D01*
X6056466Y-6986466D01*
X6056466Y-7092533D01*
X6162533Y-7092533D01*
X6162533Y-10692534D02*
X6162533Y-10586467D01*
X6056466Y-10586467D01*
X6056466Y-10692534D01*
X6162533Y-10692534D01*
X6472533Y-9146534D02*
X6472533Y-9040467D01*
X6366466Y-9040467D01*
X6366466Y-9146534D01*
X6472533Y-9146534D01*
X7107533Y-8892534D02*
X7107533Y-8786467D01*
X7001466Y-8786467D01*
X7001466Y-8892534D01*
X7107533Y-8892534D01*
X7417533Y-7346533D02*
X7417533Y-7240466D01*
X7311466Y-7240466D01*
X7311466Y-7346533D01*
X7417533Y-7346533D01*
X7417533Y-10946534D02*
X7417533Y-10840467D01*
X7311466Y-10840467D01*
X7311466Y-10946534D01*
X7417533Y-10946534D01*
X8052533Y-7092533D02*
X8052533Y-6986466D01*
X7946466Y-6986466D01*
X7946466Y-7092533D01*
X8052533Y-7092533D01*
X8052533Y-10692534D02*
X8052533Y-10586467D01*
X7946466Y-10586467D01*
X7946466Y-10692534D01*
X8052533Y-10692534D01*
X8362533Y-9146534D02*
X8362533Y-9040467D01*
X8256466Y-9040467D01*
X8256466Y-9146534D01*
X8362533Y-9146534D01*
X8997534Y-8892534D02*
X8997534Y-8786467D01*
X8891467Y-8786467D01*
X8891467Y-8892534D01*
X8997534Y-8892534D01*
X9307534Y-7346533D02*
X9307534Y-7240466D01*
X9201467Y-7240466D01*
X9201467Y-7346533D01*
X9307534Y-7346533D01*
X9307534Y-10946534D02*
X9307534Y-10840467D01*
X9201467Y-10840467D01*
X9201467Y-10946534D01*
X9307534Y-10946534D01*
X9942534Y-7092533D02*
X9942534Y-6986466D01*
X9836467Y-6986466D01*
X9836467Y-7092533D01*
X9942534Y-7092533D01*
X9942534Y-10692534D02*
X9942534Y-10586467D01*
X9836467Y-10586467D01*
X9836467Y-10692534D01*
X9942534Y-10692534D01*
X10252534Y-9146534D02*
X10252534Y-9040467D01*
X10146467Y-9040467D01*
X10146467Y-9146534D01*
X10252534Y-9146534D01*
X10887534Y-8892534D02*
X10887534Y-8786467D01*
X10781467Y-8786467D01*
X10781467Y-8892534D01*
X10887534Y-8892534D01*
X11197533Y-7346533D02*
X11197533Y-7240466D01*
X11091467Y-7240466D01*
X11091467Y-7346533D01*
X11197533Y-7346533D01*
X11197533Y-10946534D02*
X11197533Y-10840467D01*
X11091467Y-10840467D01*
X11091467Y-10946534D01*
X11197533Y-10946534D01*
X11832533Y-7092533D02*
X11832533Y-6986466D01*
X11726466Y-6986466D01*
X11726466Y-7092533D01*
X11832533Y-7092533D01*
X11832533Y-10692534D02*
X11832533Y-10586467D01*
X11726466Y-10586467D01*
X11726466Y-10692534D01*
X11832533Y-10692534D01*
X12142533Y-9146534D02*
X12142533Y-9040467D01*
X12036466Y-9040467D01*
X12036466Y-9146534D01*
X12142533Y-9146534D01*
X12777533Y-8892534D02*
X12777533Y-8786467D01*
X12671466Y-8786467D01*
X12671466Y-8892534D01*
X12777533Y-8892534D01*
X13087533Y-7346533D02*
X13087533Y-7240466D01*
X12981466Y-7240466D01*
X12981466Y-7346533D01*
X13087533Y-7346533D01*
X13087533Y-10946534D02*
X13087533Y-10840467D01*
X12981466Y-10840467D01*
X12981466Y-10946534D01*
X13087533Y-10946534D01*
X13722533Y-7092533D02*
X13722533Y-6986466D01*
X13616466Y-6986466D01*
X13616466Y-7092533D01*
X13722533Y-7092533D01*
X13722533Y-10692534D02*
X13722533Y-10586467D01*
X13616466Y-10586467D01*
X13616466Y-10692534D01*
X13722533Y-10692534D01*
X14032533Y-9146534D02*
X14032533Y-9040467D01*
X13926466Y-9040467D01*
X13926466Y-9146534D01*
X14032533Y-9146534D01*
X14667533Y-8892534D02*
X14667533Y-8786467D01*
X14561466Y-8786467D01*
X14561466Y-8892534D01*
X14667533Y-8892534D01*
X14977533Y-7346533D02*
X14977533Y-7240466D01*
X14871466Y-7240466D01*
X14871466Y-7346533D01*
X14977533Y-7346533D01*
X14977533Y-10946534D02*
X14977533Y-10840467D01*
X14871466Y-10840467D01*
X14871466Y-10946534D01*
X14977533Y-10946534D01*
X15612533Y-7092533D02*
X15612533Y-6986466D01*
X15506466Y-6986466D01*
X15506466Y-7092533D01*
X15612533Y-7092533D01*
X15612533Y-10692534D02*
X15612533Y-10586467D01*
X15506466Y-10586467D01*
X15506466Y-10692534D01*
X15612533Y-10692534D01*
X15922533Y-9146534D02*
X15922533Y-9040467D01*
X15816466Y-9040467D01*
X15816466Y-9146534D01*
X15922533Y-9146534D01*
X16557533Y-8892534D02*
X16557533Y-8786467D01*
X16451466Y-8786467D01*
X16451466Y-8892534D01*
X16557533Y-8892534D01*
X16867534Y-7346533D02*
X16867534Y-7240466D01*
X16761466Y-7240466D01*
X16761466Y-7346533D01*
X16867534Y-7346533D01*
X16867534Y-10946534D02*
X16867534Y-10840467D01*
X16761466Y-10840467D01*
X16761466Y-10946534D01*
X16867534Y-10946534D01*
X17502534Y-7092533D02*
X17502534Y-6986466D01*
X17396467Y-6986466D01*
X17396467Y-7092533D01*
X17502534Y-7092533D01*
X17502534Y-10692534D02*
X17502534Y-10586467D01*
X17396467Y-10586467D01*
X17396467Y-10692534D01*
X17502534Y-10692534D01*
X17812534Y-9146534D02*
X17812534Y-9040467D01*
X17706467Y-9040467D01*
X17706467Y-9146534D01*
X17812534Y-9146534D01*
X18447534Y-8892534D02*
X18447534Y-8786467D01*
X18341467Y-8786467D01*
X18341467Y-8892534D01*
X18447534Y-8892534D01*
X18757534Y-7346533D02*
X18757534Y-7240466D01*
X18651467Y-7240466D01*
X18651467Y-7346533D01*
X18757534Y-7346533D01*
X18757534Y-10946534D02*
X18757534Y-10840467D01*
X18651467Y-10840467D01*
X18651467Y-10946534D01*
X18757534Y-10946534D01*
X19392534Y-7092533D02*
X19392534Y-6986466D01*
X19286467Y-6986466D01*
X19286467Y-7092533D01*
X19392534Y-7092533D01*
X19392534Y-10692534D02*
X19392534Y-10586467D01*
X19286467Y-10586467D01*
X19286467Y-10692534D01*
X19392534Y-10692534D01*
X19702534Y-9146534D02*
X19702534Y-9040467D01*
X19596467Y-9040467D01*
X19596467Y-9146534D01*
X19702534Y-9146534D01*
X20337534Y-8892534D02*
X20337534Y-8786467D01*
X20231467Y-8786467D01*
X20231467Y-8892534D01*
X20337534Y-8892534D01*
X20647534Y-7346533D02*
X20647534Y-7240466D01*
X20541467Y-7240466D01*
X20541467Y-7346533D01*
X20647534Y-7346533D01*
X20647534Y-10946534D02*
X20647534Y-10840467D01*
X20541467Y-10840467D01*
X20541467Y-10946534D01*
X20647534Y-10946534D01*
X21282534Y-7092533D02*
X21282534Y-6986466D01*
X21176467Y-6986466D01*
X21176467Y-7092533D01*
X21282534Y-7092533D01*
X21282534Y-10692534D02*
X21282534Y-10586467D01*
X21176467Y-10586467D01*
X21176467Y-10692534D01*
X21282534Y-10692534D01*
X21592534Y-9146534D02*
X21592534Y-9040467D01*
X21486467Y-9040467D01*
X21486467Y-9146534D01*
X21592534Y-9146534D01*
X22227534Y-8892534D02*
X22227534Y-8786467D01*
X22121467Y-8786467D01*
X22121467Y-8892534D01*
X22227534Y-8892534D01*
X22537533Y-7346533D02*
X22537533Y-7240466D01*
X22431466Y-7240466D01*
X22431466Y-7346533D01*
X22537533Y-7346533D01*
X22537533Y-10946534D02*
X22537533Y-10840467D01*
X22431466Y-10840467D01*
X22431466Y-10946534D01*
X22537533Y-10946534D01*
X23172533Y-7092533D02*
X23172533Y-6986466D01*
X23066466Y-6986466D01*
X23066466Y-7092533D01*
X23172533Y-7092533D01*
X23172533Y-10692534D02*
X23172533Y-10586467D01*
X23066466Y-10586467D01*
X23066466Y-10692534D01*
X23172533Y-10692534D01*
X23482533Y-9146534D02*
X23482533Y-9040467D01*
X23376466Y-9040467D01*
X23376466Y-9146534D01*
X23482533Y-9146534D01*
X24117533Y-8892534D02*
X24117533Y-8786467D01*
X24011466Y-8786467D01*
X24011466Y-8892534D01*
X24117533Y-8892534D01*
X24427533Y-7346533D02*
X24427533Y-7240466D01*
X24321466Y-7240466D01*
X24321466Y-7346533D01*
X24427533Y-7346533D01*
X24427533Y-10946534D02*
X24427533Y-10840467D01*
X24321466Y-10840467D01*
X24321466Y-10946534D01*
X24427533Y-10946534D01*
X25062533Y-7092533D02*
X25062533Y-6986466D01*
X24956466Y-6986466D01*
X24956466Y-7092533D01*
X25062533Y-7092533D01*
X25062533Y-10692534D02*
X25062533Y-10586467D01*
X24956466Y-10586467D01*
X24956466Y-10692534D01*
X25062533Y-10692534D01*
D11*
X2468777Y-13216484D02*
X2468777Y-13016484D01*
X2468777Y-13016484D02*
X2516396Y-13016484D01*
X2516396Y-13016484D02*
X2544967Y-13026008D01*
X2544967Y-13026008D02*
X2564015Y-13045055D01*
X2564015Y-13045055D02*
X2573539Y-13064103D01*
X2573539Y-13064103D02*
X2583063Y-13102198D01*
X2583063Y-13102198D02*
X2583063Y-13130769D01*
X2583063Y-13130769D02*
X2573539Y-13168865D01*
X2573539Y-13168865D02*
X2564015Y-13187912D01*
X2564015Y-13187912D02*
X2544967Y-13206960D01*
X2544967Y-13206960D02*
X2516396Y-13216484D01*
X2516396Y-13216484D02*
X2468777Y-13216484D01*
X2668777Y-13216484D02*
X2668777Y-13083150D01*
X2668777Y-13121246D02*
X2678301Y-13102198D01*
X2678301Y-13102198D02*
X2687824Y-13092674D01*
X2687824Y-13092674D02*
X2706872Y-13083150D01*
X2706872Y-13083150D02*
X2725920Y-13083150D01*
X2792586Y-13216484D02*
X2792586Y-13083150D01*
X2792586Y-13016484D02*
X2783063Y-13026008D01*
X2783063Y-13026008D02*
X2792586Y-13035531D01*
X2792586Y-13035531D02*
X2802110Y-13026008D01*
X2802110Y-13026008D02*
X2792586Y-13016484D01*
X2792586Y-13016484D02*
X2792586Y-13035531D01*
X2916396Y-13216484D02*
X2897348Y-13206960D01*
X2897348Y-13206960D02*
X2887824Y-13187912D01*
X2887824Y-13187912D02*
X2887824Y-13016484D01*
X3021158Y-13216484D02*
X3002110Y-13206960D01*
X3002110Y-13206960D02*
X2992586Y-13187912D01*
X2992586Y-13187912D02*
X2992586Y-13016484D01*
X3249729Y-13216484D02*
X3249729Y-13016484D01*
X3249729Y-13016484D02*
X3316396Y-13159341D01*
X3316396Y-13159341D02*
X3383062Y-13016484D01*
X3383062Y-13016484D02*
X3383062Y-13216484D01*
X3564015Y-13216484D02*
X3564015Y-13111722D01*
X3564015Y-13111722D02*
X3554491Y-13092674D01*
X3554491Y-13092674D02*
X3535443Y-13083150D01*
X3535443Y-13083150D02*
X3497348Y-13083150D01*
X3497348Y-13083150D02*
X3478301Y-13092674D01*
X3564015Y-13206960D02*
X3544967Y-13216484D01*
X3544967Y-13216484D02*
X3497348Y-13216484D01*
X3497348Y-13216484D02*
X3478301Y-13206960D01*
X3478301Y-13206960D02*
X3468777Y-13187912D01*
X3468777Y-13187912D02*
X3468777Y-13168865D01*
X3468777Y-13168865D02*
X3478301Y-13149817D01*
X3478301Y-13149817D02*
X3497348Y-13140293D01*
X3497348Y-13140293D02*
X3544967Y-13140293D01*
X3544967Y-13140293D02*
X3564015Y-13130769D01*
X3659253Y-13083150D02*
X3659253Y-13283150D01*
X3659253Y-13092674D02*
X3678301Y-13083150D01*
X3678301Y-13083150D02*
X3716396Y-13083150D01*
X3716396Y-13083150D02*
X3735443Y-13092674D01*
X3735443Y-13092674D02*
X3744967Y-13102198D01*
X3744967Y-13102198D02*
X3754491Y-13121246D01*
X3754491Y-13121246D02*
X3754491Y-13178388D01*
X3754491Y-13178388D02*
X3744967Y-13197436D01*
X3744967Y-13197436D02*
X3735443Y-13206960D01*
X3735443Y-13206960D02*
X3716396Y-13216484D01*
X3716396Y-13216484D02*
X3678301Y-13216484D01*
X3678301Y-13216484D02*
X3659253Y-13206960D01*
X3840205Y-13197436D02*
X3849729Y-13206960D01*
X3849729Y-13206960D02*
X3840205Y-13216484D01*
X3840205Y-13216484D02*
X3830682Y-13206960D01*
X3830682Y-13206960D02*
X3840205Y-13197436D01*
X3840205Y-13197436D02*
X3840205Y-13216484D01*
X3840205Y-13092674D02*
X3849729Y-13102198D01*
X3849729Y-13102198D02*
X3840205Y-13111722D01*
X3840205Y-13111722D02*
X3830682Y-13102198D01*
X3830682Y-13102198D02*
X3840205Y-13092674D01*
X3840205Y-13092674D02*
X3840205Y-13111722D01*
D12*
X2168000Y-13525000D02*
X2208000Y-13565000D01*
X2208000Y-13525000D02*
X2168000Y-13565000D01*
D11*
X2506872Y-13436484D02*
X2525920Y-13436484D01*
X2525920Y-13436484D02*
X2544967Y-13446008D01*
X2544967Y-13446008D02*
X2554491Y-13455531D01*
X2554491Y-13455531D02*
X2564015Y-13474579D01*
X2564015Y-13474579D02*
X2573539Y-13512674D01*
X2573539Y-13512674D02*
X2573539Y-13560293D01*
X2573539Y-13560293D02*
X2564015Y-13598388D01*
X2564015Y-13598388D02*
X2554491Y-13617436D01*
X2554491Y-13617436D02*
X2544967Y-13626960D01*
X2544967Y-13626960D02*
X2525920Y-13636484D01*
X2525920Y-13636484D02*
X2506872Y-13636484D01*
X2506872Y-13636484D02*
X2487824Y-13626960D01*
X2487824Y-13626960D02*
X2478301Y-13617436D01*
X2478301Y-13617436D02*
X2468777Y-13598388D01*
X2468777Y-13598388D02*
X2459253Y-13560293D01*
X2459253Y-13560293D02*
X2459253Y-13512674D01*
X2459253Y-13512674D02*
X2468777Y-13474579D01*
X2468777Y-13474579D02*
X2478301Y-13455531D01*
X2478301Y-13455531D02*
X2487824Y-13446008D01*
X2487824Y-13446008D02*
X2506872Y-13436484D01*
X2659253Y-13617436D02*
X2668777Y-13626960D01*
X2668777Y-13626960D02*
X2659253Y-13636484D01*
X2659253Y-13636484D02*
X2649729Y-13626960D01*
X2649729Y-13626960D02*
X2659253Y-13617436D01*
X2659253Y-13617436D02*
X2659253Y-13636484D01*
X2840205Y-13503150D02*
X2840205Y-13636484D01*
X2792586Y-13426960D02*
X2744967Y-13569817D01*
X2744967Y-13569817D02*
X2868777Y-13569817D01*
X2983062Y-13436484D02*
X3002110Y-13436484D01*
X3002110Y-13436484D02*
X3021158Y-13446008D01*
X3021158Y-13446008D02*
X3030682Y-13455531D01*
X3030682Y-13455531D02*
X3040205Y-13474579D01*
X3040205Y-13474579D02*
X3049729Y-13512674D01*
X3049729Y-13512674D02*
X3049729Y-13560293D01*
X3049729Y-13560293D02*
X3040205Y-13598388D01*
X3040205Y-13598388D02*
X3030682Y-13617436D01*
X3030682Y-13617436D02*
X3021158Y-13626960D01*
X3021158Y-13626960D02*
X3002110Y-13636484D01*
X3002110Y-13636484D02*
X2983062Y-13636484D01*
X2983062Y-13636484D02*
X2964015Y-13626960D01*
X2964015Y-13626960D02*
X2954491Y-13617436D01*
X2954491Y-13617436D02*
X2944967Y-13598388D01*
X2944967Y-13598388D02*
X2935443Y-13560293D01*
X2935443Y-13560293D02*
X2935443Y-13512674D01*
X2935443Y-13512674D02*
X2944967Y-13474579D01*
X2944967Y-13474579D02*
X2954491Y-13455531D01*
X2954491Y-13455531D02*
X2964015Y-13446008D01*
X2964015Y-13446008D02*
X2983062Y-13436484D01*
X3173539Y-13436484D02*
X3192586Y-13436484D01*
X3192586Y-13436484D02*
X3211634Y-13446008D01*
X3211634Y-13446008D02*
X3221158Y-13455531D01*
X3221158Y-13455531D02*
X3230682Y-13474579D01*
X3230682Y-13474579D02*
X3240205Y-13512674D01*
X3240205Y-13512674D02*
X3240205Y-13560293D01*
X3240205Y-13560293D02*
X3230682Y-13598388D01*
X3230682Y-13598388D02*
X3221158Y-13617436D01*
X3221158Y-13617436D02*
X3211634Y-13626960D01*
X3211634Y-13626960D02*
X3192586Y-13636484D01*
X3192586Y-13636484D02*
X3173539Y-13636484D01*
X3173539Y-13636484D02*
X3154491Y-13626960D01*
X3154491Y-13626960D02*
X3144967Y-13617436D01*
X3144967Y-13617436D02*
X3135443Y-13598388D01*
X3135443Y-13598388D02*
X3125920Y-13560293D01*
X3125920Y-13560293D02*
X3125920Y-13512674D01*
X3125920Y-13512674D02*
X3135443Y-13474579D01*
X3135443Y-13474579D02*
X3144967Y-13455531D01*
X3144967Y-13455531D02*
X3154491Y-13446008D01*
X3154491Y-13446008D02*
X3173539Y-13436484D01*
X3325920Y-13636484D02*
X3325920Y-13503150D01*
X3325920Y-13522198D02*
X3335443Y-13512674D01*
X3335443Y-13512674D02*
X3354491Y-13503150D01*
X3354491Y-13503150D02*
X3383063Y-13503150D01*
X3383063Y-13503150D02*
X3402110Y-13512674D01*
X3402110Y-13512674D02*
X3411634Y-13531722D01*
X3411634Y-13531722D02*
X3411634Y-13636484D01*
X3411634Y-13531722D02*
X3421158Y-13512674D01*
X3421158Y-13512674D02*
X3440205Y-13503150D01*
X3440205Y-13503150D02*
X3468777Y-13503150D01*
X3468777Y-13503150D02*
X3487824Y-13512674D01*
X3487824Y-13512674D02*
X3497348Y-13531722D01*
X3497348Y-13531722D02*
X3497348Y-13636484D01*
X3592586Y-13636484D02*
X3592586Y-13503150D01*
X3592586Y-13522198D02*
X3602110Y-13512674D01*
X3602110Y-13512674D02*
X3621158Y-13503150D01*
X3621158Y-13503150D02*
X3649729Y-13503150D01*
X3649729Y-13503150D02*
X3668777Y-13512674D01*
X3668777Y-13512674D02*
X3678301Y-13531722D01*
X3678301Y-13531722D02*
X3678301Y-13636484D01*
X3678301Y-13531722D02*
X3687824Y-13512674D01*
X3687824Y-13512674D02*
X3706872Y-13503150D01*
X3706872Y-13503150D02*
X3735443Y-13503150D01*
X3735443Y-13503150D02*
X3754491Y-13512674D01*
X3754491Y-13512674D02*
X3764015Y-13531722D01*
X3764015Y-13531722D02*
X3764015Y-13636484D01*
X4154491Y-13426960D02*
X3983063Y-13684103D01*
X4411634Y-13436484D02*
X4430682Y-13436484D01*
X4430682Y-13436484D02*
X4449729Y-13446008D01*
X4449729Y-13446008D02*
X4459253Y-13455531D01*
X4459253Y-13455531D02*
X4468777Y-13474579D01*
X4468777Y-13474579D02*
X4478301Y-13512674D01*
X4478301Y-13512674D02*
X4478301Y-13560293D01*
X4478301Y-13560293D02*
X4468777Y-13598388D01*
X4468777Y-13598388D02*
X4459253Y-13617436D01*
X4459253Y-13617436D02*
X4449729Y-13626960D01*
X4449729Y-13626960D02*
X4430682Y-13636484D01*
X4430682Y-13636484D02*
X4411634Y-13636484D01*
X4411634Y-13636484D02*
X4392587Y-13626960D01*
X4392587Y-13626960D02*
X4383063Y-13617436D01*
X4383063Y-13617436D02*
X4373539Y-13598388D01*
X4373539Y-13598388D02*
X4364015Y-13560293D01*
X4364015Y-13560293D02*
X4364015Y-13512674D01*
X4364015Y-13512674D02*
X4373539Y-13474579D01*
X4373539Y-13474579D02*
X4383063Y-13455531D01*
X4383063Y-13455531D02*
X4392587Y-13446008D01*
X4392587Y-13446008D02*
X4411634Y-13436484D01*
X4564015Y-13617436D02*
X4573539Y-13626960D01*
X4573539Y-13626960D02*
X4564015Y-13636484D01*
X4564015Y-13636484D02*
X4554491Y-13626960D01*
X4554491Y-13626960D02*
X4564015Y-13617436D01*
X4564015Y-13617436D02*
X4564015Y-13636484D01*
X4697348Y-13436484D02*
X4716396Y-13436484D01*
X4716396Y-13436484D02*
X4735444Y-13446008D01*
X4735444Y-13446008D02*
X4744968Y-13455531D01*
X4744968Y-13455531D02*
X4754491Y-13474579D01*
X4754491Y-13474579D02*
X4764015Y-13512674D01*
X4764015Y-13512674D02*
X4764015Y-13560293D01*
X4764015Y-13560293D02*
X4754491Y-13598388D01*
X4754491Y-13598388D02*
X4744968Y-13617436D01*
X4744968Y-13617436D02*
X4735444Y-13626960D01*
X4735444Y-13626960D02*
X4716396Y-13636484D01*
X4716396Y-13636484D02*
X4697348Y-13636484D01*
X4697348Y-13636484D02*
X4678301Y-13626960D01*
X4678301Y-13626960D02*
X4668777Y-13617436D01*
X4668777Y-13617436D02*
X4659253Y-13598388D01*
X4659253Y-13598388D02*
X4649729Y-13560293D01*
X4649729Y-13560293D02*
X4649729Y-13512674D01*
X4649729Y-13512674D02*
X4659253Y-13474579D01*
X4659253Y-13474579D02*
X4668777Y-13455531D01*
X4668777Y-13455531D02*
X4678301Y-13446008D01*
X4678301Y-13446008D02*
X4697348Y-13436484D01*
X4954491Y-13636484D02*
X4840206Y-13636484D01*
X4897348Y-13636484D02*
X4897348Y-13436484D01*
X4897348Y-13436484D02*
X4878301Y-13465055D01*
X4878301Y-13465055D02*
X4859253Y-13484103D01*
X4859253Y-13484103D02*
X4840206Y-13493627D01*
X5135444Y-13436484D02*
X5040206Y-13436484D01*
X5040206Y-13436484D02*
X5030682Y-13531722D01*
X5030682Y-13531722D02*
X5040206Y-13522198D01*
X5040206Y-13522198D02*
X5059253Y-13512674D01*
X5059253Y-13512674D02*
X5106872Y-13512674D01*
X5106872Y-13512674D02*
X5125920Y-13522198D01*
X5125920Y-13522198D02*
X5135444Y-13531722D01*
X5135444Y-13531722D02*
X5144968Y-13550769D01*
X5144968Y-13550769D02*
X5144968Y-13598388D01*
X5144968Y-13598388D02*
X5135444Y-13617436D01*
X5135444Y-13617436D02*
X5125920Y-13626960D01*
X5125920Y-13626960D02*
X5106872Y-13636484D01*
X5106872Y-13636484D02*
X5059253Y-13636484D01*
X5059253Y-13636484D02*
X5040206Y-13626960D01*
X5040206Y-13626960D02*
X5030682Y-13617436D01*
X5211634Y-13436484D02*
X5344968Y-13436484D01*
X5344968Y-13436484D02*
X5259253Y-13636484D01*
X5411634Y-13436484D02*
X5411634Y-13474579D01*
X5487825Y-13436484D02*
X5487825Y-13474579D01*
X5783063Y-13712674D02*
X5773539Y-13703150D01*
X5773539Y-13703150D02*
X5754491Y-13674579D01*
X5754491Y-13674579D02*
X5744968Y-13655531D01*
X5744968Y-13655531D02*
X5735444Y-13626960D01*
X5735444Y-13626960D02*
X5725920Y-13579341D01*
X5725920Y-13579341D02*
X5725920Y-13541246D01*
X5725920Y-13541246D02*
X5735444Y-13493627D01*
X5735444Y-13493627D02*
X5744968Y-13465055D01*
X5744968Y-13465055D02*
X5754491Y-13446008D01*
X5754491Y-13446008D02*
X5773539Y-13417436D01*
X5773539Y-13417436D02*
X5783063Y-13407912D01*
X5964015Y-13636484D02*
X5849729Y-13636484D01*
X5906872Y-13636484D02*
X5906872Y-13436484D01*
X5906872Y-13436484D02*
X5887825Y-13465055D01*
X5887825Y-13465055D02*
X5868777Y-13484103D01*
X5868777Y-13484103D02*
X5849729Y-13493627D01*
X6144968Y-13436484D02*
X6049729Y-13436484D01*
X6049729Y-13436484D02*
X6040206Y-13531722D01*
X6040206Y-13531722D02*
X6049729Y-13522198D01*
X6049729Y-13522198D02*
X6068777Y-13512674D01*
X6068777Y-13512674D02*
X6116396Y-13512674D01*
X6116396Y-13512674D02*
X6135444Y-13522198D01*
X6135444Y-13522198D02*
X6144968Y-13531722D01*
X6144968Y-13531722D02*
X6154491Y-13550769D01*
X6154491Y-13550769D02*
X6154491Y-13598388D01*
X6154491Y-13598388D02*
X6144968Y-13617436D01*
X6144968Y-13617436D02*
X6135444Y-13626960D01*
X6135444Y-13626960D02*
X6116396Y-13636484D01*
X6116396Y-13636484D02*
X6068777Y-13636484D01*
X6068777Y-13636484D02*
X6049729Y-13626960D01*
X6049729Y-13626960D02*
X6040206Y-13617436D01*
X6230682Y-13455531D02*
X6240206Y-13446008D01*
X6240206Y-13446008D02*
X6259253Y-13436484D01*
X6259253Y-13436484D02*
X6306872Y-13436484D01*
X6306872Y-13436484D02*
X6325920Y-13446008D01*
X6325920Y-13446008D02*
X6335444Y-13455531D01*
X6335444Y-13455531D02*
X6344968Y-13474579D01*
X6344968Y-13474579D02*
X6344968Y-13493627D01*
X6344968Y-13493627D02*
X6335444Y-13522198D01*
X6335444Y-13522198D02*
X6221158Y-13636484D01*
X6221158Y-13636484D02*
X6344968Y-13636484D01*
X6583063Y-13636484D02*
X6583063Y-13436484D01*
X6668777Y-13636484D02*
X6668777Y-13531722D01*
X6668777Y-13531722D02*
X6659253Y-13512674D01*
X6659253Y-13512674D02*
X6640206Y-13503150D01*
X6640206Y-13503150D02*
X6611634Y-13503150D01*
X6611634Y-13503150D02*
X6592587Y-13512674D01*
X6592587Y-13512674D02*
X6583063Y-13522198D01*
X6792587Y-13636484D02*
X6773539Y-13626960D01*
X6773539Y-13626960D02*
X6764015Y-13617436D01*
X6764015Y-13617436D02*
X6754491Y-13598388D01*
X6754491Y-13598388D02*
X6754491Y-13541246D01*
X6754491Y-13541246D02*
X6764015Y-13522198D01*
X6764015Y-13522198D02*
X6773539Y-13512674D01*
X6773539Y-13512674D02*
X6792587Y-13503150D01*
X6792587Y-13503150D02*
X6821158Y-13503150D01*
X6821158Y-13503150D02*
X6840206Y-13512674D01*
X6840206Y-13512674D02*
X6849730Y-13522198D01*
X6849730Y-13522198D02*
X6859253Y-13541246D01*
X6859253Y-13541246D02*
X6859253Y-13598388D01*
X6859253Y-13598388D02*
X6849730Y-13617436D01*
X6849730Y-13617436D02*
X6840206Y-13626960D01*
X6840206Y-13626960D02*
X6821158Y-13636484D01*
X6821158Y-13636484D02*
X6792587Y-13636484D01*
X6973539Y-13636484D02*
X6954491Y-13626960D01*
X6954491Y-13626960D02*
X6944968Y-13607912D01*
X6944968Y-13607912D02*
X6944968Y-13436484D01*
X7125920Y-13626960D02*
X7106872Y-13636484D01*
X7106872Y-13636484D02*
X7068777Y-13636484D01*
X7068777Y-13636484D02*
X7049730Y-13626960D01*
X7049730Y-13626960D02*
X7040206Y-13607912D01*
X7040206Y-13607912D02*
X7040206Y-13531722D01*
X7040206Y-13531722D02*
X7049730Y-13512674D01*
X7049730Y-13512674D02*
X7068777Y-13503150D01*
X7068777Y-13503150D02*
X7106872Y-13503150D01*
X7106872Y-13503150D02*
X7125920Y-13512674D01*
X7125920Y-13512674D02*
X7135444Y-13531722D01*
X7135444Y-13531722D02*
X7135444Y-13550769D01*
X7135444Y-13550769D02*
X7040206Y-13569817D01*
X7211634Y-13626960D02*
X7230682Y-13636484D01*
X7230682Y-13636484D02*
X7268777Y-13636484D01*
X7268777Y-13636484D02*
X7287825Y-13626960D01*
X7287825Y-13626960D02*
X7297349Y-13607912D01*
X7297349Y-13607912D02*
X7297349Y-13598388D01*
X7297349Y-13598388D02*
X7287825Y-13579341D01*
X7287825Y-13579341D02*
X7268777Y-13569817D01*
X7268777Y-13569817D02*
X7240206Y-13569817D01*
X7240206Y-13569817D02*
X7221158Y-13560293D01*
X7221158Y-13560293D02*
X7211634Y-13541246D01*
X7211634Y-13541246D02*
X7211634Y-13531722D01*
X7211634Y-13531722D02*
X7221158Y-13512674D01*
X7221158Y-13512674D02*
X7240206Y-13503150D01*
X7240206Y-13503150D02*
X7268777Y-13503150D01*
X7268777Y-13503150D02*
X7287825Y-13512674D01*
X7364015Y-13712674D02*
X7373539Y-13703150D01*
X7373539Y-13703150D02*
X7392587Y-13674579D01*
X7392587Y-13674579D02*
X7402111Y-13655531D01*
X7402111Y-13655531D02*
X7411634Y-13626960D01*
X7411634Y-13626960D02*
X7421158Y-13579341D01*
X7421158Y-13579341D02*
X7421158Y-13541246D01*
X7421158Y-13541246D02*
X7411634Y-13493627D01*
X7411634Y-13493627D02*
X7402111Y-13465055D01*
X7402111Y-13465055D02*
X7392587Y-13446008D01*
X7392587Y-13446008D02*
X7373539Y-13417436D01*
X7373539Y-13417436D02*
X7364015Y-13407912D01*
D13*
X2208000Y-13809000D02*
G75*
G03*
X2208000Y-13809000I-40000J0D01*
G01*
D11*
X2506872Y-13700484D02*
X2525920Y-13700484D01*
X2525920Y-13700484D02*
X2544967Y-13710008D01*
X2544967Y-13710008D02*
X2554491Y-13719531D01*
X2554491Y-13719531D02*
X2564015Y-13738579D01*
X2564015Y-13738579D02*
X2573539Y-13776674D01*
X2573539Y-13776674D02*
X2573539Y-13824293D01*
X2573539Y-13824293D02*
X2564015Y-13862388D01*
X2564015Y-13862388D02*
X2554491Y-13881436D01*
X2554491Y-13881436D02*
X2544967Y-13890960D01*
X2544967Y-13890960D02*
X2525920Y-13900484D01*
X2525920Y-13900484D02*
X2506872Y-13900484D01*
X2506872Y-13900484D02*
X2487824Y-13890960D01*
X2487824Y-13890960D02*
X2478301Y-13881436D01*
X2478301Y-13881436D02*
X2468777Y-13862388D01*
X2468777Y-13862388D02*
X2459253Y-13824293D01*
X2459253Y-13824293D02*
X2459253Y-13776674D01*
X2459253Y-13776674D02*
X2468777Y-13738579D01*
X2468777Y-13738579D02*
X2478301Y-13719531D01*
X2478301Y-13719531D02*
X2487824Y-13710008D01*
X2487824Y-13710008D02*
X2506872Y-13700484D01*
X2659253Y-13881436D02*
X2668777Y-13890960D01*
X2668777Y-13890960D02*
X2659253Y-13900484D01*
X2659253Y-13900484D02*
X2649729Y-13890960D01*
X2649729Y-13890960D02*
X2659253Y-13881436D01*
X2659253Y-13881436D02*
X2659253Y-13900484D01*
X2783063Y-13786198D02*
X2764015Y-13776674D01*
X2764015Y-13776674D02*
X2754491Y-13767150D01*
X2754491Y-13767150D02*
X2744967Y-13748103D01*
X2744967Y-13748103D02*
X2744967Y-13738579D01*
X2744967Y-13738579D02*
X2754491Y-13719531D01*
X2754491Y-13719531D02*
X2764015Y-13710008D01*
X2764015Y-13710008D02*
X2783063Y-13700484D01*
X2783063Y-13700484D02*
X2821158Y-13700484D01*
X2821158Y-13700484D02*
X2840205Y-13710008D01*
X2840205Y-13710008D02*
X2849729Y-13719531D01*
X2849729Y-13719531D02*
X2859253Y-13738579D01*
X2859253Y-13738579D02*
X2859253Y-13748103D01*
X2859253Y-13748103D02*
X2849729Y-13767150D01*
X2849729Y-13767150D02*
X2840205Y-13776674D01*
X2840205Y-13776674D02*
X2821158Y-13786198D01*
X2821158Y-13786198D02*
X2783063Y-13786198D01*
X2783063Y-13786198D02*
X2764015Y-13795722D01*
X2764015Y-13795722D02*
X2754491Y-13805246D01*
X2754491Y-13805246D02*
X2744967Y-13824293D01*
X2744967Y-13824293D02*
X2744967Y-13862388D01*
X2744967Y-13862388D02*
X2754491Y-13881436D01*
X2754491Y-13881436D02*
X2764015Y-13890960D01*
X2764015Y-13890960D02*
X2783063Y-13900484D01*
X2783063Y-13900484D02*
X2821158Y-13900484D01*
X2821158Y-13900484D02*
X2840205Y-13890960D01*
X2840205Y-13890960D02*
X2849729Y-13881436D01*
X2849729Y-13881436D02*
X2859253Y-13862388D01*
X2859253Y-13862388D02*
X2859253Y-13824293D01*
X2859253Y-13824293D02*
X2849729Y-13805246D01*
X2849729Y-13805246D02*
X2840205Y-13795722D01*
X2840205Y-13795722D02*
X2821158Y-13786198D01*
X2983062Y-13700484D02*
X3002110Y-13700484D01*
X3002110Y-13700484D02*
X3021158Y-13710008D01*
X3021158Y-13710008D02*
X3030682Y-13719531D01*
X3030682Y-13719531D02*
X3040205Y-13738579D01*
X3040205Y-13738579D02*
X3049729Y-13776674D01*
X3049729Y-13776674D02*
X3049729Y-13824293D01*
X3049729Y-13824293D02*
X3040205Y-13862388D01*
X3040205Y-13862388D02*
X3030682Y-13881436D01*
X3030682Y-13881436D02*
X3021158Y-13890960D01*
X3021158Y-13890960D02*
X3002110Y-13900484D01*
X3002110Y-13900484D02*
X2983062Y-13900484D01*
X2983062Y-13900484D02*
X2964015Y-13890960D01*
X2964015Y-13890960D02*
X2954491Y-13881436D01*
X2954491Y-13881436D02*
X2944967Y-13862388D01*
X2944967Y-13862388D02*
X2935443Y-13824293D01*
X2935443Y-13824293D02*
X2935443Y-13776674D01*
X2935443Y-13776674D02*
X2944967Y-13738579D01*
X2944967Y-13738579D02*
X2954491Y-13719531D01*
X2954491Y-13719531D02*
X2964015Y-13710008D01*
X2964015Y-13710008D02*
X2983062Y-13700484D01*
X3173539Y-13700484D02*
X3192586Y-13700484D01*
X3192586Y-13700484D02*
X3211634Y-13710008D01*
X3211634Y-13710008D02*
X3221158Y-13719531D01*
X3221158Y-13719531D02*
X3230682Y-13738579D01*
X3230682Y-13738579D02*
X3240205Y-13776674D01*
X3240205Y-13776674D02*
X3240205Y-13824293D01*
X3240205Y-13824293D02*
X3230682Y-13862388D01*
X3230682Y-13862388D02*
X3221158Y-13881436D01*
X3221158Y-13881436D02*
X3211634Y-13890960D01*
X3211634Y-13890960D02*
X3192586Y-13900484D01*
X3192586Y-13900484D02*
X3173539Y-13900484D01*
X3173539Y-13900484D02*
X3154491Y-13890960D01*
X3154491Y-13890960D02*
X3144967Y-13881436D01*
X3144967Y-13881436D02*
X3135443Y-13862388D01*
X3135443Y-13862388D02*
X3125920Y-13824293D01*
X3125920Y-13824293D02*
X3125920Y-13776674D01*
X3125920Y-13776674D02*
X3135443Y-13738579D01*
X3135443Y-13738579D02*
X3144967Y-13719531D01*
X3144967Y-13719531D02*
X3154491Y-13710008D01*
X3154491Y-13710008D02*
X3173539Y-13700484D01*
X3325920Y-13900484D02*
X3325920Y-13767150D01*
X3325920Y-13786198D02*
X3335443Y-13776674D01*
X3335443Y-13776674D02*
X3354491Y-13767150D01*
X3354491Y-13767150D02*
X3383063Y-13767150D01*
X3383063Y-13767150D02*
X3402110Y-13776674D01*
X3402110Y-13776674D02*
X3411634Y-13795722D01*
X3411634Y-13795722D02*
X3411634Y-13900484D01*
X3411634Y-13795722D02*
X3421158Y-13776674D01*
X3421158Y-13776674D02*
X3440205Y-13767150D01*
X3440205Y-13767150D02*
X3468777Y-13767150D01*
X3468777Y-13767150D02*
X3487824Y-13776674D01*
X3487824Y-13776674D02*
X3497348Y-13795722D01*
X3497348Y-13795722D02*
X3497348Y-13900484D01*
X3592586Y-13900484D02*
X3592586Y-13767150D01*
X3592586Y-13786198D02*
X3602110Y-13776674D01*
X3602110Y-13776674D02*
X3621158Y-13767150D01*
X3621158Y-13767150D02*
X3649729Y-13767150D01*
X3649729Y-13767150D02*
X3668777Y-13776674D01*
X3668777Y-13776674D02*
X3678301Y-13795722D01*
X3678301Y-13795722D02*
X3678301Y-13900484D01*
X3678301Y-13795722D02*
X3687824Y-13776674D01*
X3687824Y-13776674D02*
X3706872Y-13767150D01*
X3706872Y-13767150D02*
X3735443Y-13767150D01*
X3735443Y-13767150D02*
X3754491Y-13776674D01*
X3754491Y-13776674D02*
X3764015Y-13795722D01*
X3764015Y-13795722D02*
X3764015Y-13900484D01*
X4154491Y-13690960D02*
X3983063Y-13948103D01*
X4411634Y-13700484D02*
X4430682Y-13700484D01*
X4430682Y-13700484D02*
X4449729Y-13710008D01*
X4449729Y-13710008D02*
X4459253Y-13719531D01*
X4459253Y-13719531D02*
X4468777Y-13738579D01*
X4468777Y-13738579D02*
X4478301Y-13776674D01*
X4478301Y-13776674D02*
X4478301Y-13824293D01*
X4478301Y-13824293D02*
X4468777Y-13862388D01*
X4468777Y-13862388D02*
X4459253Y-13881436D01*
X4459253Y-13881436D02*
X4449729Y-13890960D01*
X4449729Y-13890960D02*
X4430682Y-13900484D01*
X4430682Y-13900484D02*
X4411634Y-13900484D01*
X4411634Y-13900484D02*
X4392587Y-13890960D01*
X4392587Y-13890960D02*
X4383063Y-13881436D01*
X4383063Y-13881436D02*
X4373539Y-13862388D01*
X4373539Y-13862388D02*
X4364015Y-13824293D01*
X4364015Y-13824293D02*
X4364015Y-13776674D01*
X4364015Y-13776674D02*
X4373539Y-13738579D01*
X4373539Y-13738579D02*
X4383063Y-13719531D01*
X4383063Y-13719531D02*
X4392587Y-13710008D01*
X4392587Y-13710008D02*
X4411634Y-13700484D01*
X4564015Y-13881436D02*
X4573539Y-13890960D01*
X4573539Y-13890960D02*
X4564015Y-13900484D01*
X4564015Y-13900484D02*
X4554491Y-13890960D01*
X4554491Y-13890960D02*
X4564015Y-13881436D01*
X4564015Y-13881436D02*
X4564015Y-13900484D01*
X4697348Y-13700484D02*
X4716396Y-13700484D01*
X4716396Y-13700484D02*
X4735444Y-13710008D01*
X4735444Y-13710008D02*
X4744968Y-13719531D01*
X4744968Y-13719531D02*
X4754491Y-13738579D01*
X4754491Y-13738579D02*
X4764015Y-13776674D01*
X4764015Y-13776674D02*
X4764015Y-13824293D01*
X4764015Y-13824293D02*
X4754491Y-13862388D01*
X4754491Y-13862388D02*
X4744968Y-13881436D01*
X4744968Y-13881436D02*
X4735444Y-13890960D01*
X4735444Y-13890960D02*
X4716396Y-13900484D01*
X4716396Y-13900484D02*
X4697348Y-13900484D01*
X4697348Y-13900484D02*
X4678301Y-13890960D01*
X4678301Y-13890960D02*
X4668777Y-13881436D01*
X4668777Y-13881436D02*
X4659253Y-13862388D01*
X4659253Y-13862388D02*
X4649729Y-13824293D01*
X4649729Y-13824293D02*
X4649729Y-13776674D01*
X4649729Y-13776674D02*
X4659253Y-13738579D01*
X4659253Y-13738579D02*
X4668777Y-13719531D01*
X4668777Y-13719531D02*
X4678301Y-13710008D01*
X4678301Y-13710008D02*
X4697348Y-13700484D01*
X4830682Y-13700484D02*
X4954491Y-13700484D01*
X4954491Y-13700484D02*
X4887825Y-13776674D01*
X4887825Y-13776674D02*
X4916396Y-13776674D01*
X4916396Y-13776674D02*
X4935444Y-13786198D01*
X4935444Y-13786198D02*
X4944968Y-13795722D01*
X4944968Y-13795722D02*
X4954491Y-13814769D01*
X4954491Y-13814769D02*
X4954491Y-13862388D01*
X4954491Y-13862388D02*
X4944968Y-13881436D01*
X4944968Y-13881436D02*
X4935444Y-13890960D01*
X4935444Y-13890960D02*
X4916396Y-13900484D01*
X4916396Y-13900484D02*
X4859253Y-13900484D01*
X4859253Y-13900484D02*
X4840206Y-13890960D01*
X4840206Y-13890960D02*
X4830682Y-13881436D01*
X5144968Y-13900484D02*
X5030682Y-13900484D01*
X5087825Y-13900484D02*
X5087825Y-13700484D01*
X5087825Y-13700484D02*
X5068777Y-13729055D01*
X5068777Y-13729055D02*
X5049729Y-13748103D01*
X5049729Y-13748103D02*
X5030682Y-13757627D01*
X5325920Y-13700484D02*
X5230682Y-13700484D01*
X5230682Y-13700484D02*
X5221158Y-13795722D01*
X5221158Y-13795722D02*
X5230682Y-13786198D01*
X5230682Y-13786198D02*
X5249729Y-13776674D01*
X5249729Y-13776674D02*
X5297349Y-13776674D01*
X5297349Y-13776674D02*
X5316396Y-13786198D01*
X5316396Y-13786198D02*
X5325920Y-13795722D01*
X5325920Y-13795722D02*
X5335444Y-13814769D01*
X5335444Y-13814769D02*
X5335444Y-13862388D01*
X5335444Y-13862388D02*
X5325920Y-13881436D01*
X5325920Y-13881436D02*
X5316396Y-13890960D01*
X5316396Y-13890960D02*
X5297349Y-13900484D01*
X5297349Y-13900484D02*
X5249729Y-13900484D01*
X5249729Y-13900484D02*
X5230682Y-13890960D01*
X5230682Y-13890960D02*
X5221158Y-13881436D01*
X5411634Y-13700484D02*
X5411634Y-13738579D01*
X5487825Y-13700484D02*
X5487825Y-13738579D01*
X5783063Y-13976674D02*
X5773539Y-13967150D01*
X5773539Y-13967150D02*
X5754491Y-13938579D01*
X5754491Y-13938579D02*
X5744968Y-13919531D01*
X5744968Y-13919531D02*
X5735444Y-13890960D01*
X5735444Y-13890960D02*
X5725920Y-13843341D01*
X5725920Y-13843341D02*
X5725920Y-13805246D01*
X5725920Y-13805246D02*
X5735444Y-13757627D01*
X5735444Y-13757627D02*
X5744968Y-13729055D01*
X5744968Y-13729055D02*
X5754491Y-13710008D01*
X5754491Y-13710008D02*
X5773539Y-13681436D01*
X5773539Y-13681436D02*
X5783063Y-13671912D01*
X5964015Y-13900484D02*
X5849729Y-13900484D01*
X5906872Y-13900484D02*
X5906872Y-13700484D01*
X5906872Y-13700484D02*
X5887825Y-13729055D01*
X5887825Y-13729055D02*
X5868777Y-13748103D01*
X5868777Y-13748103D02*
X5849729Y-13757627D01*
X6135444Y-13700484D02*
X6097348Y-13700484D01*
X6097348Y-13700484D02*
X6078301Y-13710008D01*
X6078301Y-13710008D02*
X6068777Y-13719531D01*
X6068777Y-13719531D02*
X6049729Y-13748103D01*
X6049729Y-13748103D02*
X6040206Y-13786198D01*
X6040206Y-13786198D02*
X6040206Y-13862388D01*
X6040206Y-13862388D02*
X6049729Y-13881436D01*
X6049729Y-13881436D02*
X6059253Y-13890960D01*
X6059253Y-13890960D02*
X6078301Y-13900484D01*
X6078301Y-13900484D02*
X6116396Y-13900484D01*
X6116396Y-13900484D02*
X6135444Y-13890960D01*
X6135444Y-13890960D02*
X6144968Y-13881436D01*
X6144968Y-13881436D02*
X6154491Y-13862388D01*
X6154491Y-13862388D02*
X6154491Y-13814769D01*
X6154491Y-13814769D02*
X6144968Y-13795722D01*
X6144968Y-13795722D02*
X6135444Y-13786198D01*
X6135444Y-13786198D02*
X6116396Y-13776674D01*
X6116396Y-13776674D02*
X6078301Y-13776674D01*
X6078301Y-13776674D02*
X6059253Y-13786198D01*
X6059253Y-13786198D02*
X6049729Y-13795722D01*
X6049729Y-13795722D02*
X6040206Y-13814769D01*
X6278301Y-13700484D02*
X6297349Y-13700484D01*
X6297349Y-13700484D02*
X6316396Y-13710008D01*
X6316396Y-13710008D02*
X6325920Y-13719531D01*
X6325920Y-13719531D02*
X6335444Y-13738579D01*
X6335444Y-13738579D02*
X6344968Y-13776674D01*
X6344968Y-13776674D02*
X6344968Y-13824293D01*
X6344968Y-13824293D02*
X6335444Y-13862388D01*
X6335444Y-13862388D02*
X6325920Y-13881436D01*
X6325920Y-13881436D02*
X6316396Y-13890960D01*
X6316396Y-13890960D02*
X6297349Y-13900484D01*
X6297349Y-13900484D02*
X6278301Y-13900484D01*
X6278301Y-13900484D02*
X6259253Y-13890960D01*
X6259253Y-13890960D02*
X6249729Y-13881436D01*
X6249729Y-13881436D02*
X6240206Y-13862388D01*
X6240206Y-13862388D02*
X6230682Y-13824293D01*
X6230682Y-13824293D02*
X6230682Y-13776674D01*
X6230682Y-13776674D02*
X6240206Y-13738579D01*
X6240206Y-13738579D02*
X6249729Y-13719531D01*
X6249729Y-13719531D02*
X6259253Y-13710008D01*
X6259253Y-13710008D02*
X6278301Y-13700484D01*
X6583063Y-13900484D02*
X6583063Y-13700484D01*
X6668777Y-13900484D02*
X6668777Y-13795722D01*
X6668777Y-13795722D02*
X6659253Y-13776674D01*
X6659253Y-13776674D02*
X6640206Y-13767150D01*
X6640206Y-13767150D02*
X6611634Y-13767150D01*
X6611634Y-13767150D02*
X6592587Y-13776674D01*
X6592587Y-13776674D02*
X6583063Y-13786198D01*
X6792587Y-13900484D02*
X6773539Y-13890960D01*
X6773539Y-13890960D02*
X6764015Y-13881436D01*
X6764015Y-13881436D02*
X6754491Y-13862388D01*
X6754491Y-13862388D02*
X6754491Y-13805246D01*
X6754491Y-13805246D02*
X6764015Y-13786198D01*
X6764015Y-13786198D02*
X6773539Y-13776674D01*
X6773539Y-13776674D02*
X6792587Y-13767150D01*
X6792587Y-13767150D02*
X6821158Y-13767150D01*
X6821158Y-13767150D02*
X6840206Y-13776674D01*
X6840206Y-13776674D02*
X6849730Y-13786198D01*
X6849730Y-13786198D02*
X6859253Y-13805246D01*
X6859253Y-13805246D02*
X6859253Y-13862388D01*
X6859253Y-13862388D02*
X6849730Y-13881436D01*
X6849730Y-13881436D02*
X6840206Y-13890960D01*
X6840206Y-13890960D02*
X6821158Y-13900484D01*
X6821158Y-13900484D02*
X6792587Y-13900484D01*
X6973539Y-13900484D02*
X6954491Y-13890960D01*
X6954491Y-13890960D02*
X6944968Y-13871912D01*
X6944968Y-13871912D02*
X6944968Y-13700484D01*
X7125920Y-13890960D02*
X7106872Y-13900484D01*
X7106872Y-13900484D02*
X7068777Y-13900484D01*
X7068777Y-13900484D02*
X7049730Y-13890960D01*
X7049730Y-13890960D02*
X7040206Y-13871912D01*
X7040206Y-13871912D02*
X7040206Y-13795722D01*
X7040206Y-13795722D02*
X7049730Y-13776674D01*
X7049730Y-13776674D02*
X7068777Y-13767150D01*
X7068777Y-13767150D02*
X7106872Y-13767150D01*
X7106872Y-13767150D02*
X7125920Y-13776674D01*
X7125920Y-13776674D02*
X7135444Y-13795722D01*
X7135444Y-13795722D02*
X7135444Y-13814769D01*
X7135444Y-13814769D02*
X7040206Y-13833817D01*
X7211634Y-13890960D02*
X7230682Y-13900484D01*
X7230682Y-13900484D02*
X7268777Y-13900484D01*
X7268777Y-13900484D02*
X7287825Y-13890960D01*
X7287825Y-13890960D02*
X7297349Y-13871912D01*
X7297349Y-13871912D02*
X7297349Y-13862388D01*
X7297349Y-13862388D02*
X7287825Y-13843341D01*
X7287825Y-13843341D02*
X7268777Y-13833817D01*
X7268777Y-13833817D02*
X7240206Y-13833817D01*
X7240206Y-13833817D02*
X7221158Y-13824293D01*
X7221158Y-13824293D02*
X7211634Y-13805246D01*
X7211634Y-13805246D02*
X7211634Y-13795722D01*
X7211634Y-13795722D02*
X7221158Y-13776674D01*
X7221158Y-13776674D02*
X7240206Y-13767150D01*
X7240206Y-13767150D02*
X7268777Y-13767150D01*
X7268777Y-13767150D02*
X7287825Y-13776674D01*
X7364015Y-13976674D02*
X7373539Y-13967150D01*
X7373539Y-13967150D02*
X7392587Y-13938579D01*
X7392587Y-13938579D02*
X7402111Y-13919531D01*
X7402111Y-13919531D02*
X7411634Y-13890960D01*
X7411634Y-13890960D02*
X7421158Y-13843341D01*
X7421158Y-13843341D02*
X7421158Y-13805246D01*
X7421158Y-13805246D02*
X7411634Y-13757627D01*
X7411634Y-13757627D02*
X7402111Y-13729055D01*
X7402111Y-13729055D02*
X7392587Y-13710008D01*
X7392587Y-13710008D02*
X7373539Y-13681436D01*
X7373539Y-13681436D02*
X7364015Y-13671912D01*
D10*
X2158000Y-14023000D02*
X2158000Y-14123000D01*
X2108000Y-14073000D02*
X2208000Y-14073000D01*
D11*
X2573539Y-14164484D02*
X2459253Y-14164484D01*
X2516396Y-14164484D02*
X2516396Y-13964484D01*
X2516396Y-13964484D02*
X2497348Y-13993055D01*
X2497348Y-13993055D02*
X2478301Y-14012103D01*
X2478301Y-14012103D02*
X2459253Y-14021627D01*
X2659253Y-14145436D02*
X2668777Y-14154960D01*
X2668777Y-14154960D02*
X2659253Y-14164484D01*
X2659253Y-14164484D02*
X2649729Y-14154960D01*
X2649729Y-14154960D02*
X2659253Y-14145436D01*
X2659253Y-14145436D02*
X2659253Y-14164484D01*
X2792586Y-13964484D02*
X2811634Y-13964484D01*
X2811634Y-13964484D02*
X2830682Y-13974008D01*
X2830682Y-13974008D02*
X2840205Y-13983531D01*
X2840205Y-13983531D02*
X2849729Y-14002579D01*
X2849729Y-14002579D02*
X2859253Y-14040674D01*
X2859253Y-14040674D02*
X2859253Y-14088293D01*
X2859253Y-14088293D02*
X2849729Y-14126388D01*
X2849729Y-14126388D02*
X2840205Y-14145436D01*
X2840205Y-14145436D02*
X2830682Y-14154960D01*
X2830682Y-14154960D02*
X2811634Y-14164484D01*
X2811634Y-14164484D02*
X2792586Y-14164484D01*
X2792586Y-14164484D02*
X2773539Y-14154960D01*
X2773539Y-14154960D02*
X2764015Y-14145436D01*
X2764015Y-14145436D02*
X2754491Y-14126388D01*
X2754491Y-14126388D02*
X2744967Y-14088293D01*
X2744967Y-14088293D02*
X2744967Y-14040674D01*
X2744967Y-14040674D02*
X2754491Y-14002579D01*
X2754491Y-14002579D02*
X2764015Y-13983531D01*
X2764015Y-13983531D02*
X2773539Y-13974008D01*
X2773539Y-13974008D02*
X2792586Y-13964484D01*
X2983062Y-13964484D02*
X3002110Y-13964484D01*
X3002110Y-13964484D02*
X3021158Y-13974008D01*
X3021158Y-13974008D02*
X3030682Y-13983531D01*
X3030682Y-13983531D02*
X3040205Y-14002579D01*
X3040205Y-14002579D02*
X3049729Y-14040674D01*
X3049729Y-14040674D02*
X3049729Y-14088293D01*
X3049729Y-14088293D02*
X3040205Y-14126388D01*
X3040205Y-14126388D02*
X3030682Y-14145436D01*
X3030682Y-14145436D02*
X3021158Y-14154960D01*
X3021158Y-14154960D02*
X3002110Y-14164484D01*
X3002110Y-14164484D02*
X2983062Y-14164484D01*
X2983062Y-14164484D02*
X2964015Y-14154960D01*
X2964015Y-14154960D02*
X2954491Y-14145436D01*
X2954491Y-14145436D02*
X2944967Y-14126388D01*
X2944967Y-14126388D02*
X2935443Y-14088293D01*
X2935443Y-14088293D02*
X2935443Y-14040674D01*
X2935443Y-14040674D02*
X2944967Y-14002579D01*
X2944967Y-14002579D02*
X2954491Y-13983531D01*
X2954491Y-13983531D02*
X2964015Y-13974008D01*
X2964015Y-13974008D02*
X2983062Y-13964484D01*
X3173539Y-13964484D02*
X3192586Y-13964484D01*
X3192586Y-13964484D02*
X3211634Y-13974008D01*
X3211634Y-13974008D02*
X3221158Y-13983531D01*
X3221158Y-13983531D02*
X3230682Y-14002579D01*
X3230682Y-14002579D02*
X3240205Y-14040674D01*
X3240205Y-14040674D02*
X3240205Y-14088293D01*
X3240205Y-14088293D02*
X3230682Y-14126388D01*
X3230682Y-14126388D02*
X3221158Y-14145436D01*
X3221158Y-14145436D02*
X3211634Y-14154960D01*
X3211634Y-14154960D02*
X3192586Y-14164484D01*
X3192586Y-14164484D02*
X3173539Y-14164484D01*
X3173539Y-14164484D02*
X3154491Y-14154960D01*
X3154491Y-14154960D02*
X3144967Y-14145436D01*
X3144967Y-14145436D02*
X3135443Y-14126388D01*
X3135443Y-14126388D02*
X3125920Y-14088293D01*
X3125920Y-14088293D02*
X3125920Y-14040674D01*
X3125920Y-14040674D02*
X3135443Y-14002579D01*
X3135443Y-14002579D02*
X3144967Y-13983531D01*
X3144967Y-13983531D02*
X3154491Y-13974008D01*
X3154491Y-13974008D02*
X3173539Y-13964484D01*
X3325920Y-14164484D02*
X3325920Y-14031150D01*
X3325920Y-14050198D02*
X3335443Y-14040674D01*
X3335443Y-14040674D02*
X3354491Y-14031150D01*
X3354491Y-14031150D02*
X3383063Y-14031150D01*
X3383063Y-14031150D02*
X3402110Y-14040674D01*
X3402110Y-14040674D02*
X3411634Y-14059722D01*
X3411634Y-14059722D02*
X3411634Y-14164484D01*
X3411634Y-14059722D02*
X3421158Y-14040674D01*
X3421158Y-14040674D02*
X3440205Y-14031150D01*
X3440205Y-14031150D02*
X3468777Y-14031150D01*
X3468777Y-14031150D02*
X3487824Y-14040674D01*
X3487824Y-14040674D02*
X3497348Y-14059722D01*
X3497348Y-14059722D02*
X3497348Y-14164484D01*
X3592586Y-14164484D02*
X3592586Y-14031150D01*
X3592586Y-14050198D02*
X3602110Y-14040674D01*
X3602110Y-14040674D02*
X3621158Y-14031150D01*
X3621158Y-14031150D02*
X3649729Y-14031150D01*
X3649729Y-14031150D02*
X3668777Y-14040674D01*
X3668777Y-14040674D02*
X3678301Y-14059722D01*
X3678301Y-14059722D02*
X3678301Y-14164484D01*
X3678301Y-14059722D02*
X3687824Y-14040674D01*
X3687824Y-14040674D02*
X3706872Y-14031150D01*
X3706872Y-14031150D02*
X3735443Y-14031150D01*
X3735443Y-14031150D02*
X3754491Y-14040674D01*
X3754491Y-14040674D02*
X3764015Y-14059722D01*
X3764015Y-14059722D02*
X3764015Y-14164484D01*
X4154491Y-13954960D02*
X3983063Y-14212103D01*
X4411634Y-13964484D02*
X4430682Y-13964484D01*
X4430682Y-13964484D02*
X4449729Y-13974008D01*
X4449729Y-13974008D02*
X4459253Y-13983531D01*
X4459253Y-13983531D02*
X4468777Y-14002579D01*
X4468777Y-14002579D02*
X4478301Y-14040674D01*
X4478301Y-14040674D02*
X4478301Y-14088293D01*
X4478301Y-14088293D02*
X4468777Y-14126388D01*
X4468777Y-14126388D02*
X4459253Y-14145436D01*
X4459253Y-14145436D02*
X4449729Y-14154960D01*
X4449729Y-14154960D02*
X4430682Y-14164484D01*
X4430682Y-14164484D02*
X4411634Y-14164484D01*
X4411634Y-14164484D02*
X4392587Y-14154960D01*
X4392587Y-14154960D02*
X4383063Y-14145436D01*
X4383063Y-14145436D02*
X4373539Y-14126388D01*
X4373539Y-14126388D02*
X4364015Y-14088293D01*
X4364015Y-14088293D02*
X4364015Y-14040674D01*
X4364015Y-14040674D02*
X4373539Y-14002579D01*
X4373539Y-14002579D02*
X4383063Y-13983531D01*
X4383063Y-13983531D02*
X4392587Y-13974008D01*
X4392587Y-13974008D02*
X4411634Y-13964484D01*
X4564015Y-14145436D02*
X4573539Y-14154960D01*
X4573539Y-14154960D02*
X4564015Y-14164484D01*
X4564015Y-14164484D02*
X4554491Y-14154960D01*
X4554491Y-14154960D02*
X4564015Y-14145436D01*
X4564015Y-14145436D02*
X4564015Y-14164484D01*
X4697348Y-13964484D02*
X4716396Y-13964484D01*
X4716396Y-13964484D02*
X4735444Y-13974008D01*
X4735444Y-13974008D02*
X4744968Y-13983531D01*
X4744968Y-13983531D02*
X4754491Y-14002579D01*
X4754491Y-14002579D02*
X4764015Y-14040674D01*
X4764015Y-14040674D02*
X4764015Y-14088293D01*
X4764015Y-14088293D02*
X4754491Y-14126388D01*
X4754491Y-14126388D02*
X4744968Y-14145436D01*
X4744968Y-14145436D02*
X4735444Y-14154960D01*
X4735444Y-14154960D02*
X4716396Y-14164484D01*
X4716396Y-14164484D02*
X4697348Y-14164484D01*
X4697348Y-14164484D02*
X4678301Y-14154960D01*
X4678301Y-14154960D02*
X4668777Y-14145436D01*
X4668777Y-14145436D02*
X4659253Y-14126388D01*
X4659253Y-14126388D02*
X4649729Y-14088293D01*
X4649729Y-14088293D02*
X4649729Y-14040674D01*
X4649729Y-14040674D02*
X4659253Y-14002579D01*
X4659253Y-14002579D02*
X4668777Y-13983531D01*
X4668777Y-13983531D02*
X4678301Y-13974008D01*
X4678301Y-13974008D02*
X4697348Y-13964484D01*
X4830682Y-13964484D02*
X4954491Y-13964484D01*
X4954491Y-13964484D02*
X4887825Y-14040674D01*
X4887825Y-14040674D02*
X4916396Y-14040674D01*
X4916396Y-14040674D02*
X4935444Y-14050198D01*
X4935444Y-14050198D02*
X4944968Y-14059722D01*
X4944968Y-14059722D02*
X4954491Y-14078769D01*
X4954491Y-14078769D02*
X4954491Y-14126388D01*
X4954491Y-14126388D02*
X4944968Y-14145436D01*
X4944968Y-14145436D02*
X4935444Y-14154960D01*
X4935444Y-14154960D02*
X4916396Y-14164484D01*
X4916396Y-14164484D02*
X4859253Y-14164484D01*
X4859253Y-14164484D02*
X4840206Y-14154960D01*
X4840206Y-14154960D02*
X4830682Y-14145436D01*
X5049729Y-14164484D02*
X5087825Y-14164484D01*
X5087825Y-14164484D02*
X5106872Y-14154960D01*
X5106872Y-14154960D02*
X5116396Y-14145436D01*
X5116396Y-14145436D02*
X5135444Y-14116865D01*
X5135444Y-14116865D02*
X5144968Y-14078769D01*
X5144968Y-14078769D02*
X5144968Y-14002579D01*
X5144968Y-14002579D02*
X5135444Y-13983531D01*
X5135444Y-13983531D02*
X5125920Y-13974008D01*
X5125920Y-13974008D02*
X5106872Y-13964484D01*
X5106872Y-13964484D02*
X5068777Y-13964484D01*
X5068777Y-13964484D02*
X5049729Y-13974008D01*
X5049729Y-13974008D02*
X5040206Y-13983531D01*
X5040206Y-13983531D02*
X5030682Y-14002579D01*
X5030682Y-14002579D02*
X5030682Y-14050198D01*
X5030682Y-14050198D02*
X5040206Y-14069246D01*
X5040206Y-14069246D02*
X5049729Y-14078769D01*
X5049729Y-14078769D02*
X5068777Y-14088293D01*
X5068777Y-14088293D02*
X5106872Y-14088293D01*
X5106872Y-14088293D02*
X5125920Y-14078769D01*
X5125920Y-14078769D02*
X5135444Y-14069246D01*
X5135444Y-14069246D02*
X5144968Y-14050198D01*
X5316396Y-14031150D02*
X5316396Y-14164484D01*
X5268777Y-13954960D02*
X5221158Y-14097817D01*
X5221158Y-14097817D02*
X5344968Y-14097817D01*
X5411634Y-13964484D02*
X5411634Y-14002579D01*
X5487825Y-13964484D02*
X5487825Y-14002579D01*
X5783063Y-14240674D02*
X5773539Y-14231150D01*
X5773539Y-14231150D02*
X5754491Y-14202579D01*
X5754491Y-14202579D02*
X5744968Y-14183531D01*
X5744968Y-14183531D02*
X5735444Y-14154960D01*
X5735444Y-14154960D02*
X5725920Y-14107341D01*
X5725920Y-14107341D02*
X5725920Y-14069246D01*
X5725920Y-14069246D02*
X5735444Y-14021627D01*
X5735444Y-14021627D02*
X5744968Y-13993055D01*
X5744968Y-13993055D02*
X5754491Y-13974008D01*
X5754491Y-13974008D02*
X5773539Y-13945436D01*
X5773539Y-13945436D02*
X5783063Y-13935912D01*
X5944968Y-13964484D02*
X5906872Y-13964484D01*
X5906872Y-13964484D02*
X5887825Y-13974008D01*
X5887825Y-13974008D02*
X5878301Y-13983531D01*
X5878301Y-13983531D02*
X5859253Y-14012103D01*
X5859253Y-14012103D02*
X5849729Y-14050198D01*
X5849729Y-14050198D02*
X5849729Y-14126388D01*
X5849729Y-14126388D02*
X5859253Y-14145436D01*
X5859253Y-14145436D02*
X5868777Y-14154960D01*
X5868777Y-14154960D02*
X5887825Y-14164484D01*
X5887825Y-14164484D02*
X5925920Y-14164484D01*
X5925920Y-14164484D02*
X5944968Y-14154960D01*
X5944968Y-14154960D02*
X5954491Y-14145436D01*
X5954491Y-14145436D02*
X5964015Y-14126388D01*
X5964015Y-14126388D02*
X5964015Y-14078769D01*
X5964015Y-14078769D02*
X5954491Y-14059722D01*
X5954491Y-14059722D02*
X5944968Y-14050198D01*
X5944968Y-14050198D02*
X5925920Y-14040674D01*
X5925920Y-14040674D02*
X5887825Y-14040674D01*
X5887825Y-14040674D02*
X5868777Y-14050198D01*
X5868777Y-14050198D02*
X5859253Y-14059722D01*
X5859253Y-14059722D02*
X5849729Y-14078769D01*
X6202110Y-14164484D02*
X6202110Y-13964484D01*
X6287825Y-14164484D02*
X6287825Y-14059722D01*
X6287825Y-14059722D02*
X6278301Y-14040674D01*
X6278301Y-14040674D02*
X6259253Y-14031150D01*
X6259253Y-14031150D02*
X6230682Y-14031150D01*
X6230682Y-14031150D02*
X6211634Y-14040674D01*
X6211634Y-14040674D02*
X6202110Y-14050198D01*
X6411634Y-14164484D02*
X6392587Y-14154960D01*
X6392587Y-14154960D02*
X6383063Y-14145436D01*
X6383063Y-14145436D02*
X6373539Y-14126388D01*
X6373539Y-14126388D02*
X6373539Y-14069246D01*
X6373539Y-14069246D02*
X6383063Y-14050198D01*
X6383063Y-14050198D02*
X6392587Y-14040674D01*
X6392587Y-14040674D02*
X6411634Y-14031150D01*
X6411634Y-14031150D02*
X6440206Y-14031150D01*
X6440206Y-14031150D02*
X6459253Y-14040674D01*
X6459253Y-14040674D02*
X6468777Y-14050198D01*
X6468777Y-14050198D02*
X6478301Y-14069246D01*
X6478301Y-14069246D02*
X6478301Y-14126388D01*
X6478301Y-14126388D02*
X6468777Y-14145436D01*
X6468777Y-14145436D02*
X6459253Y-14154960D01*
X6459253Y-14154960D02*
X6440206Y-14164484D01*
X6440206Y-14164484D02*
X6411634Y-14164484D01*
X6592587Y-14164484D02*
X6573539Y-14154960D01*
X6573539Y-14154960D02*
X6564015Y-14135912D01*
X6564015Y-14135912D02*
X6564015Y-13964484D01*
X6744968Y-14154960D02*
X6725920Y-14164484D01*
X6725920Y-14164484D02*
X6687825Y-14164484D01*
X6687825Y-14164484D02*
X6668777Y-14154960D01*
X6668777Y-14154960D02*
X6659253Y-14135912D01*
X6659253Y-14135912D02*
X6659253Y-14059722D01*
X6659253Y-14059722D02*
X6668777Y-14040674D01*
X6668777Y-14040674D02*
X6687825Y-14031150D01*
X6687825Y-14031150D02*
X6725920Y-14031150D01*
X6725920Y-14031150D02*
X6744968Y-14040674D01*
X6744968Y-14040674D02*
X6754491Y-14059722D01*
X6754491Y-14059722D02*
X6754491Y-14078769D01*
X6754491Y-14078769D02*
X6659253Y-14097817D01*
X6830682Y-14154960D02*
X6849730Y-14164484D01*
X6849730Y-14164484D02*
X6887825Y-14164484D01*
X6887825Y-14164484D02*
X6906872Y-14154960D01*
X6906872Y-14154960D02*
X6916396Y-14135912D01*
X6916396Y-14135912D02*
X6916396Y-14126388D01*
X6916396Y-14126388D02*
X6906872Y-14107341D01*
X6906872Y-14107341D02*
X6887825Y-14097817D01*
X6887825Y-14097817D02*
X6859253Y-14097817D01*
X6859253Y-14097817D02*
X6840206Y-14088293D01*
X6840206Y-14088293D02*
X6830682Y-14069246D01*
X6830682Y-14069246D02*
X6830682Y-14059722D01*
X6830682Y-14059722D02*
X6840206Y-14040674D01*
X6840206Y-14040674D02*
X6859253Y-14031150D01*
X6859253Y-14031150D02*
X6887825Y-14031150D01*
X6887825Y-14031150D02*
X6906872Y-14040674D01*
X6983063Y-14240674D02*
X6992587Y-14231150D01*
X6992587Y-14231150D02*
X7011634Y-14202579D01*
X7011634Y-14202579D02*
X7021158Y-14183531D01*
X7021158Y-14183531D02*
X7030682Y-14154960D01*
X7030682Y-14154960D02*
X7040206Y-14107341D01*
X7040206Y-14107341D02*
X7040206Y-14069246D01*
X7040206Y-14069246D02*
X7030682Y-14021627D01*
X7030682Y-14021627D02*
X7021158Y-13993055D01*
X7021158Y-13993055D02*
X7011634Y-13974008D01*
X7011634Y-13974008D02*
X6992587Y-13945436D01*
X6992587Y-13945436D02*
X6983063Y-13935912D01*
D14*
X2186034Y-14390033D02*
X2186034Y-14283966D01*
X2079966Y-14283966D01*
X2079966Y-14390033D01*
X2186034Y-14390033D01*
D11*
X2573539Y-14428484D02*
X2459253Y-14428484D01*
X2516396Y-14428484D02*
X2516396Y-14228484D01*
X2516396Y-14228484D02*
X2497348Y-14257055D01*
X2497348Y-14257055D02*
X2478301Y-14276103D01*
X2478301Y-14276103D02*
X2459253Y-14285627D01*
X2659253Y-14409436D02*
X2668777Y-14418960D01*
X2668777Y-14418960D02*
X2659253Y-14428484D01*
X2659253Y-14428484D02*
X2649729Y-14418960D01*
X2649729Y-14418960D02*
X2659253Y-14409436D01*
X2659253Y-14409436D02*
X2659253Y-14428484D01*
X2849729Y-14228484D02*
X2754491Y-14228484D01*
X2754491Y-14228484D02*
X2744967Y-14323722D01*
X2744967Y-14323722D02*
X2754491Y-14314198D01*
X2754491Y-14314198D02*
X2773539Y-14304674D01*
X2773539Y-14304674D02*
X2821158Y-14304674D01*
X2821158Y-14304674D02*
X2840205Y-14314198D01*
X2840205Y-14314198D02*
X2849729Y-14323722D01*
X2849729Y-14323722D02*
X2859253Y-14342769D01*
X2859253Y-14342769D02*
X2859253Y-14390388D01*
X2859253Y-14390388D02*
X2849729Y-14409436D01*
X2849729Y-14409436D02*
X2840205Y-14418960D01*
X2840205Y-14418960D02*
X2821158Y-14428484D01*
X2821158Y-14428484D02*
X2773539Y-14428484D01*
X2773539Y-14428484D02*
X2754491Y-14418960D01*
X2754491Y-14418960D02*
X2744967Y-14409436D01*
X2983062Y-14228484D02*
X3002110Y-14228484D01*
X3002110Y-14228484D02*
X3021158Y-14238008D01*
X3021158Y-14238008D02*
X3030682Y-14247531D01*
X3030682Y-14247531D02*
X3040205Y-14266579D01*
X3040205Y-14266579D02*
X3049729Y-14304674D01*
X3049729Y-14304674D02*
X3049729Y-14352293D01*
X3049729Y-14352293D02*
X3040205Y-14390388D01*
X3040205Y-14390388D02*
X3030682Y-14409436D01*
X3030682Y-14409436D02*
X3021158Y-14418960D01*
X3021158Y-14418960D02*
X3002110Y-14428484D01*
X3002110Y-14428484D02*
X2983062Y-14428484D01*
X2983062Y-14428484D02*
X2964015Y-14418960D01*
X2964015Y-14418960D02*
X2954491Y-14409436D01*
X2954491Y-14409436D02*
X2944967Y-14390388D01*
X2944967Y-14390388D02*
X2935443Y-14352293D01*
X2935443Y-14352293D02*
X2935443Y-14304674D01*
X2935443Y-14304674D02*
X2944967Y-14266579D01*
X2944967Y-14266579D02*
X2954491Y-14247531D01*
X2954491Y-14247531D02*
X2964015Y-14238008D01*
X2964015Y-14238008D02*
X2983062Y-14228484D01*
X3173539Y-14228484D02*
X3192586Y-14228484D01*
X3192586Y-14228484D02*
X3211634Y-14238008D01*
X3211634Y-14238008D02*
X3221158Y-14247531D01*
X3221158Y-14247531D02*
X3230682Y-14266579D01*
X3230682Y-14266579D02*
X3240205Y-14304674D01*
X3240205Y-14304674D02*
X3240205Y-14352293D01*
X3240205Y-14352293D02*
X3230682Y-14390388D01*
X3230682Y-14390388D02*
X3221158Y-14409436D01*
X3221158Y-14409436D02*
X3211634Y-14418960D01*
X3211634Y-14418960D02*
X3192586Y-14428484D01*
X3192586Y-14428484D02*
X3173539Y-14428484D01*
X3173539Y-14428484D02*
X3154491Y-14418960D01*
X3154491Y-14418960D02*
X3144967Y-14409436D01*
X3144967Y-14409436D02*
X3135443Y-14390388D01*
X3135443Y-14390388D02*
X3125920Y-14352293D01*
X3125920Y-14352293D02*
X3125920Y-14304674D01*
X3125920Y-14304674D02*
X3135443Y-14266579D01*
X3135443Y-14266579D02*
X3144967Y-14247531D01*
X3144967Y-14247531D02*
X3154491Y-14238008D01*
X3154491Y-14238008D02*
X3173539Y-14228484D01*
X3325920Y-14428484D02*
X3325920Y-14295150D01*
X3325920Y-14314198D02*
X3335443Y-14304674D01*
X3335443Y-14304674D02*
X3354491Y-14295150D01*
X3354491Y-14295150D02*
X3383063Y-14295150D01*
X3383063Y-14295150D02*
X3402110Y-14304674D01*
X3402110Y-14304674D02*
X3411634Y-14323722D01*
X3411634Y-14323722D02*
X3411634Y-14428484D01*
X3411634Y-14323722D02*
X3421158Y-14304674D01*
X3421158Y-14304674D02*
X3440205Y-14295150D01*
X3440205Y-14295150D02*
X3468777Y-14295150D01*
X3468777Y-14295150D02*
X3487824Y-14304674D01*
X3487824Y-14304674D02*
X3497348Y-14323722D01*
X3497348Y-14323722D02*
X3497348Y-14428484D01*
X3592586Y-14428484D02*
X3592586Y-14295150D01*
X3592586Y-14314198D02*
X3602110Y-14304674D01*
X3602110Y-14304674D02*
X3621158Y-14295150D01*
X3621158Y-14295150D02*
X3649729Y-14295150D01*
X3649729Y-14295150D02*
X3668777Y-14304674D01*
X3668777Y-14304674D02*
X3678301Y-14323722D01*
X3678301Y-14323722D02*
X3678301Y-14428484D01*
X3678301Y-14323722D02*
X3687824Y-14304674D01*
X3687824Y-14304674D02*
X3706872Y-14295150D01*
X3706872Y-14295150D02*
X3735443Y-14295150D01*
X3735443Y-14295150D02*
X3754491Y-14304674D01*
X3754491Y-14304674D02*
X3764015Y-14323722D01*
X3764015Y-14323722D02*
X3764015Y-14428484D01*
X4154491Y-14218960D02*
X3983063Y-14476103D01*
X4411634Y-14228484D02*
X4430682Y-14228484D01*
X4430682Y-14228484D02*
X4449729Y-14238008D01*
X4449729Y-14238008D02*
X4459253Y-14247531D01*
X4459253Y-14247531D02*
X4468777Y-14266579D01*
X4468777Y-14266579D02*
X4478301Y-14304674D01*
X4478301Y-14304674D02*
X4478301Y-14352293D01*
X4478301Y-14352293D02*
X4468777Y-14390388D01*
X4468777Y-14390388D02*
X4459253Y-14409436D01*
X4459253Y-14409436D02*
X4449729Y-14418960D01*
X4449729Y-14418960D02*
X4430682Y-14428484D01*
X4430682Y-14428484D02*
X4411634Y-14428484D01*
X4411634Y-14428484D02*
X4392587Y-14418960D01*
X4392587Y-14418960D02*
X4383063Y-14409436D01*
X4383063Y-14409436D02*
X4373539Y-14390388D01*
X4373539Y-14390388D02*
X4364015Y-14352293D01*
X4364015Y-14352293D02*
X4364015Y-14304674D01*
X4364015Y-14304674D02*
X4373539Y-14266579D01*
X4373539Y-14266579D02*
X4383063Y-14247531D01*
X4383063Y-14247531D02*
X4392587Y-14238008D01*
X4392587Y-14238008D02*
X4411634Y-14228484D01*
X4564015Y-14409436D02*
X4573539Y-14418960D01*
X4573539Y-14418960D02*
X4564015Y-14428484D01*
X4564015Y-14428484D02*
X4554491Y-14418960D01*
X4554491Y-14418960D02*
X4564015Y-14409436D01*
X4564015Y-14409436D02*
X4564015Y-14428484D01*
X4697348Y-14228484D02*
X4716396Y-14228484D01*
X4716396Y-14228484D02*
X4735444Y-14238008D01*
X4735444Y-14238008D02*
X4744968Y-14247531D01*
X4744968Y-14247531D02*
X4754491Y-14266579D01*
X4754491Y-14266579D02*
X4764015Y-14304674D01*
X4764015Y-14304674D02*
X4764015Y-14352293D01*
X4764015Y-14352293D02*
X4754491Y-14390388D01*
X4754491Y-14390388D02*
X4744968Y-14409436D01*
X4744968Y-14409436D02*
X4735444Y-14418960D01*
X4735444Y-14418960D02*
X4716396Y-14428484D01*
X4716396Y-14428484D02*
X4697348Y-14428484D01*
X4697348Y-14428484D02*
X4678301Y-14418960D01*
X4678301Y-14418960D02*
X4668777Y-14409436D01*
X4668777Y-14409436D02*
X4659253Y-14390388D01*
X4659253Y-14390388D02*
X4649729Y-14352293D01*
X4649729Y-14352293D02*
X4649729Y-14304674D01*
X4649729Y-14304674D02*
X4659253Y-14266579D01*
X4659253Y-14266579D02*
X4668777Y-14247531D01*
X4668777Y-14247531D02*
X4678301Y-14238008D01*
X4678301Y-14238008D02*
X4697348Y-14228484D01*
X4944968Y-14228484D02*
X4849729Y-14228484D01*
X4849729Y-14228484D02*
X4840206Y-14323722D01*
X4840206Y-14323722D02*
X4849729Y-14314198D01*
X4849729Y-14314198D02*
X4868777Y-14304674D01*
X4868777Y-14304674D02*
X4916396Y-14304674D01*
X4916396Y-14304674D02*
X4935444Y-14314198D01*
X4935444Y-14314198D02*
X4944968Y-14323722D01*
X4944968Y-14323722D02*
X4954491Y-14342769D01*
X4954491Y-14342769D02*
X4954491Y-14390388D01*
X4954491Y-14390388D02*
X4944968Y-14409436D01*
X4944968Y-14409436D02*
X4935444Y-14418960D01*
X4935444Y-14418960D02*
X4916396Y-14428484D01*
X4916396Y-14428484D02*
X4868777Y-14428484D01*
X4868777Y-14428484D02*
X4849729Y-14418960D01*
X4849729Y-14418960D02*
X4840206Y-14409436D01*
X5049729Y-14428484D02*
X5087825Y-14428484D01*
X5087825Y-14428484D02*
X5106872Y-14418960D01*
X5106872Y-14418960D02*
X5116396Y-14409436D01*
X5116396Y-14409436D02*
X5135444Y-14380865D01*
X5135444Y-14380865D02*
X5144968Y-14342769D01*
X5144968Y-14342769D02*
X5144968Y-14266579D01*
X5144968Y-14266579D02*
X5135444Y-14247531D01*
X5135444Y-14247531D02*
X5125920Y-14238008D01*
X5125920Y-14238008D02*
X5106872Y-14228484D01*
X5106872Y-14228484D02*
X5068777Y-14228484D01*
X5068777Y-14228484D02*
X5049729Y-14238008D01*
X5049729Y-14238008D02*
X5040206Y-14247531D01*
X5040206Y-14247531D02*
X5030682Y-14266579D01*
X5030682Y-14266579D02*
X5030682Y-14314198D01*
X5030682Y-14314198D02*
X5040206Y-14333246D01*
X5040206Y-14333246D02*
X5049729Y-14342769D01*
X5049729Y-14342769D02*
X5068777Y-14352293D01*
X5068777Y-14352293D02*
X5106872Y-14352293D01*
X5106872Y-14352293D02*
X5125920Y-14342769D01*
X5125920Y-14342769D02*
X5135444Y-14333246D01*
X5135444Y-14333246D02*
X5144968Y-14314198D01*
X5335444Y-14428484D02*
X5221158Y-14428484D01*
X5278301Y-14428484D02*
X5278301Y-14228484D01*
X5278301Y-14228484D02*
X5259253Y-14257055D01*
X5259253Y-14257055D02*
X5240206Y-14276103D01*
X5240206Y-14276103D02*
X5221158Y-14285627D01*
X5411634Y-14228484D02*
X5411634Y-14266579D01*
X5487825Y-14228484D02*
X5487825Y-14266579D01*
X5783063Y-14504674D02*
X5773539Y-14495150D01*
X5773539Y-14495150D02*
X5754491Y-14466579D01*
X5754491Y-14466579D02*
X5744968Y-14447531D01*
X5744968Y-14447531D02*
X5735444Y-14418960D01*
X5735444Y-14418960D02*
X5725920Y-14371341D01*
X5725920Y-14371341D02*
X5725920Y-14333246D01*
X5725920Y-14333246D02*
X5735444Y-14285627D01*
X5735444Y-14285627D02*
X5744968Y-14257055D01*
X5744968Y-14257055D02*
X5754491Y-14238008D01*
X5754491Y-14238008D02*
X5773539Y-14209436D01*
X5773539Y-14209436D02*
X5783063Y-14199912D01*
X5840206Y-14228484D02*
X5973539Y-14228484D01*
X5973539Y-14228484D02*
X5887825Y-14428484D01*
X6087825Y-14228484D02*
X6106872Y-14228484D01*
X6106872Y-14228484D02*
X6125920Y-14238008D01*
X6125920Y-14238008D02*
X6135444Y-14247531D01*
X6135444Y-14247531D02*
X6144968Y-14266579D01*
X6144968Y-14266579D02*
X6154491Y-14304674D01*
X6154491Y-14304674D02*
X6154491Y-14352293D01*
X6154491Y-14352293D02*
X6144968Y-14390388D01*
X6144968Y-14390388D02*
X6135444Y-14409436D01*
X6135444Y-14409436D02*
X6125920Y-14418960D01*
X6125920Y-14418960D02*
X6106872Y-14428484D01*
X6106872Y-14428484D02*
X6087825Y-14428484D01*
X6087825Y-14428484D02*
X6068777Y-14418960D01*
X6068777Y-14418960D02*
X6059253Y-14409436D01*
X6059253Y-14409436D02*
X6049729Y-14390388D01*
X6049729Y-14390388D02*
X6040206Y-14352293D01*
X6040206Y-14352293D02*
X6040206Y-14304674D01*
X6040206Y-14304674D02*
X6049729Y-14266579D01*
X6049729Y-14266579D02*
X6059253Y-14247531D01*
X6059253Y-14247531D02*
X6068777Y-14238008D01*
X6068777Y-14238008D02*
X6087825Y-14228484D01*
X6392587Y-14428484D02*
X6392587Y-14228484D01*
X6478301Y-14428484D02*
X6478301Y-14323722D01*
X6478301Y-14323722D02*
X6468777Y-14304674D01*
X6468777Y-14304674D02*
X6449730Y-14295150D01*
X6449730Y-14295150D02*
X6421158Y-14295150D01*
X6421158Y-14295150D02*
X6402110Y-14304674D01*
X6402110Y-14304674D02*
X6392587Y-14314198D01*
X6602110Y-14428484D02*
X6583063Y-14418960D01*
X6583063Y-14418960D02*
X6573539Y-14409436D01*
X6573539Y-14409436D02*
X6564015Y-14390388D01*
X6564015Y-14390388D02*
X6564015Y-14333246D01*
X6564015Y-14333246D02*
X6573539Y-14314198D01*
X6573539Y-14314198D02*
X6583063Y-14304674D01*
X6583063Y-14304674D02*
X6602110Y-14295150D01*
X6602110Y-14295150D02*
X6630682Y-14295150D01*
X6630682Y-14295150D02*
X6649730Y-14304674D01*
X6649730Y-14304674D02*
X6659253Y-14314198D01*
X6659253Y-14314198D02*
X6668777Y-14333246D01*
X6668777Y-14333246D02*
X6668777Y-14390388D01*
X6668777Y-14390388D02*
X6659253Y-14409436D01*
X6659253Y-14409436D02*
X6649730Y-14418960D01*
X6649730Y-14418960D02*
X6630682Y-14428484D01*
X6630682Y-14428484D02*
X6602110Y-14428484D01*
X6783063Y-14428484D02*
X6764015Y-14418960D01*
X6764015Y-14418960D02*
X6754491Y-14399912D01*
X6754491Y-14399912D02*
X6754491Y-14228484D01*
X6935444Y-14418960D02*
X6916396Y-14428484D01*
X6916396Y-14428484D02*
X6878301Y-14428484D01*
X6878301Y-14428484D02*
X6859253Y-14418960D01*
X6859253Y-14418960D02*
X6849730Y-14399912D01*
X6849730Y-14399912D02*
X6849730Y-14323722D01*
X6849730Y-14323722D02*
X6859253Y-14304674D01*
X6859253Y-14304674D02*
X6878301Y-14295150D01*
X6878301Y-14295150D02*
X6916396Y-14295150D01*
X6916396Y-14295150D02*
X6935444Y-14304674D01*
X6935444Y-14304674D02*
X6944968Y-14323722D01*
X6944968Y-14323722D02*
X6944968Y-14342769D01*
X6944968Y-14342769D02*
X6849730Y-14361817D01*
X7021158Y-14418960D02*
X7040206Y-14428484D01*
X7040206Y-14428484D02*
X7078301Y-14428484D01*
X7078301Y-14428484D02*
X7097349Y-14418960D01*
X7097349Y-14418960D02*
X7106872Y-14399912D01*
X7106872Y-14399912D02*
X7106872Y-14390388D01*
X7106872Y-14390388D02*
X7097349Y-14371341D01*
X7097349Y-14371341D02*
X7078301Y-14361817D01*
X7078301Y-14361817D02*
X7049730Y-14361817D01*
X7049730Y-14361817D02*
X7030682Y-14352293D01*
X7030682Y-14352293D02*
X7021158Y-14333246D01*
X7021158Y-14333246D02*
X7021158Y-14323722D01*
X7021158Y-14323722D02*
X7030682Y-14304674D01*
X7030682Y-14304674D02*
X7049730Y-14295150D01*
X7049730Y-14295150D02*
X7078301Y-14295150D01*
X7078301Y-14295150D02*
X7097349Y-14304674D01*
X7173539Y-14504674D02*
X7183063Y-14495150D01*
X7183063Y-14495150D02*
X7202111Y-14466579D01*
X7202111Y-14466579D02*
X7211634Y-14447531D01*
X7211634Y-14447531D02*
X7221158Y-14418960D01*
X7221158Y-14418960D02*
X7230682Y-14371341D01*
X7230682Y-14371341D02*
X7230682Y-14333246D01*
X7230682Y-14333246D02*
X7221158Y-14285627D01*
X7221158Y-14285627D02*
X7211634Y-14257055D01*
X7211634Y-14257055D02*
X7202111Y-14238008D01*
X7202111Y-14238008D02*
X7183063Y-14209436D01*
X7183063Y-14209436D02*
X7173539Y-14199912D01*
M02*
