  0
SECTION
  2
BLOCKS
  0
ENDSEC
  0
SECTION
  2
ENTITIES
  0
LINE
  8
0
 10
6.60001
 20
29.4
 11
-2.84998
 21
29.4
  0
LINE
  8
0
 10
-2.84998
 20
29.4
 11
-2.84998
 21
11.4
  0
LINE
  8
0
 10
-2.84998
 20
11.4
 11
-12.3
 21
11.4
  0
LINE
  8
0
 10
-12.3
 20
11.4
 11
-12.3
 21
-11.4
  0
LINE
  8
0
 10
-12.3
 20
-11.4
 11
50.1
 21
-11.4
  0
LINE
  8
0
 10
50.1
 20
-11.4
 11
50.1
 21
6.60001
  0
LINE
  8
0
 10
50.1
 20
6.60001
 11
59.55
 21
6.60001
  0
LINE
  8
0
 10
59.55
 20
6.60001
 11
59.55
 21
24.6
  0
LINE
  8
0
 10
59.55
 20
24.6
 11
69
 21
24.6
  0
LINE
  8
0
 10
69
 20
24.6
 11
69
 21
47.4
  0
LINE
  8
0
 10
69
 20
47.4
 11
6.60001
 21
47.4
  0
LINE
  8
0
 10
6.60001
 20
47.4
 11
6.60001
 21
29.4
  0
LINE
  8
0
 10
50.1
 20
29.4
 11
50.1
 21
42.6
  0
LINE
  8
0
 10
50.1
 20
42.6
 11
63.3
 21
42.6
  0
LINE
  8
0
 10
63.3
 20
42.6
 11
63.3
 21
29.4
  0
LINE
  8
0
 10
63.3
 20
29.4
 11
50.1
 21
29.4
  0
LINE
  8
0
 10
12.3
 20
29.4
 11
12.3
 21
42.6
  0
LINE
  8
0
 10
12.3
 20
42.6
 11
25.5
 21
42.6
  0
LINE
  8
0
 10
25.5
 20
42.6
 11
25.5
 21
29.4
  0
LINE
  8
0
 10
25.5
 20
29.4
 11
12.3
 21
29.4
  0
LINE
  8
0
 10
31.2
 20
29.4
 11
31.2
 21
42.6
  0
LINE
  8
0
 10
31.2
 20
42.6
 11
44.4
 21
42.6
  0
LINE
  8
0
 10
44.4
 20
42.6
 11
44.4
 21
29.4
  0
LINE
  8
0
 10
44.4
 20
29.4
 11
31.2
 21
29.4
  0
LINE
  8
0
 10
21.75
 20
11.4
 11
21.75
 21
24.6
  0
LINE
  8
0
 10
21.75
 20
24.6
 11
34.95
 21
24.6
  0
LINE
  8
0
 10
34.95
 20
24.6
 11
34.95
 21
11.4
  0
LINE
  8
0
 10
34.95
 20
11.4
 11
21.75
 21
11.4
  0
LINE
  8
0
 10
40.65
 20
11.4
 11
40.65
 21
24.6
  0
LINE
  8
0
 10
40.65
 20
24.6
 11
53.85
 21
24.6
  0
LINE
  8
0
 10
53.85
 20
24.6
 11
53.85
 21
11.4
  0
LINE
  8
0
 10
53.85
 20
11.4
 11
40.65
 21
11.4
  0
LINE
  8
0
 10
2.85001
 20
11.4
 11
2.85001
 21
24.6
  0
LINE
  8
0
 10
2.85001
 20
24.6
 11
16.05
 21
24.6
  0
LINE
  8
0
 10
16.05
 20
24.6
 11
16.05
 21
11.4
  0
LINE
  8
0
 10
16.05
 20
11.4
 11
2.85001
 21
11.4
  0
LINE
  8
0
 10
31.2
 20
-6.59999
 11
31.2
 21
6.59999
  0
LINE
  8
0
 10
31.2
 20
6.59999
 11
44.4
 21
6.59999
  0
LINE
  8
0
 10
44.4
 20
6.59999
 11
44.4
 21
-6.59999
  0
LINE
  8
0
 10
44.4
 20
-6.59999
 11
31.2
 21
-6.59999
  0
LINE
  8
0
 10
12.3
 20
-6.59999
 11
12.3
 21
6.59999
  0
LINE
  8
0
 10
12.3
 20
6.59999
 11
25.5
 21
6.59999
  0
LINE
  8
0
 10
25.5
 20
6.59999
 11
25.5
 21
-6.59999
  0
LINE
  8
0
 10
25.5
 20
-6.59999
 11
12.3
 21
-6.59999
  0
LINE
  8
0
 10
-6.59999
 20
-6.59999
 11
-6.59999
 21
6.59999
  0
LINE
  8
0
 10
-6.59999
 20
6.59999
 11
6.59999
 21
6.59999
  0
LINE
  8
0
 10
6.59999
 20
6.59999
 11
6.59999
 21
-6.59999
  0
LINE
  8
0
 10
6.59999
 20
-6.59999
 11
-6.59999
 21
-6.59999
  0
ENDSEC
  0
SECTION
  2
OBJECTS
  0
DICTIONARY
  0
ENDSEC
  0
EOF
