M48
; DRILL file {KiCad 7.0.11-7.0.11~ubuntu22.04.1} date Sun 31 Mar 2024 06:04:00 PM CEST
; FORMAT={-:-/ absolute / metric / decimal}
; #@! TF.CreationDate,2024-03-31T18:04:00+02:00
; #@! TF.GenerationSoftware,Kicad,Pcbnew,7.0.11-7.0.11~ubuntu22.04.1
; #@! TF.FileFunction,NonPlated,1,2,NPTH
FMAT,2
METRIC
; #@! TA.AperFunction,NonPlated,NPTH,ComponentDrill
T1C1.700
; #@! TA.AperFunction,NonPlated,NPTH,ComponentDrill
T2C3.200
; #@! TA.AperFunction,NonPlated,NPTH,ComponentDrill
T3C4.000
%
G90
G05
T1
X58.52Y-88.4
X66.02Y-104.4
X68.68Y-88.4
X73.52Y-120.4
X74.52Y-88.4
X76.18Y-104.4
X81.02Y-136.4
X82.02Y-104.4
X83.68Y-120.4
X84.68Y-88.4
X89.52Y-120.4
X90.52Y-88.4
X91.18Y-136.4
X92.18Y-104.4
X97.02Y-136.4
X98.02Y-104.4
X99.68Y-120.4
X100.68Y-88.4
X105.52Y-120.4
X106.52Y-88.4
X107.18Y-136.4
X108.18Y-104.4
X113.02Y-136.4
X114.02Y-104.4
X115.68Y-120.4
X116.68Y-88.4
X121.52Y-120.4
X122.52Y-88.4
X123.18Y-136.4
X124.18Y-104.4
X129.02Y-136.4
X130.02Y-104.4
X131.68Y-120.4
X132.68Y-88.4
X137.52Y-120.4
X138.52Y-88.4
X139.18Y-136.4
X140.18Y-104.4
X145.02Y-136.4
X146.02Y-104.4
X147.68Y-120.4
X148.68Y-88.4
X153.52Y-120.4
X155.18Y-136.4
X156.18Y-104.4
X161.02Y-136.4
X163.68Y-120.4
X171.18Y-136.4
T2
X47.6Y-42.4
X47.6Y-88.4
X47.6Y-142.4
X71.6Y-142.4
X159.6Y-88.4
X183.6Y-42.4
X183.6Y-142.4
T3
X63.6Y-88.4
X71.1Y-104.4
X78.6Y-120.4
X79.6Y-88.4
X86.1Y-136.4
X87.1Y-104.4
X94.6Y-120.4
X95.6Y-88.4
X102.1Y-136.4
X103.1Y-104.4
X110.6Y-120.4
X111.6Y-88.4
X118.1Y-136.4
X119.1Y-104.4
X126.6Y-120.4
X127.6Y-88.4
X134.1Y-136.4
X135.1Y-104.4
X142.6Y-120.4
X143.6Y-88.4
X150.1Y-136.4
X151.1Y-104.4
X158.6Y-120.4
X166.1Y-136.4
M30
