M48
; DRILL file {KiCad 7.0.11-7.0.11~ubuntu22.04.1} date Sun 31 Mar 2024 06:04:00 PM CEST
; FORMAT={-:-/ absolute / metric / decimal}
; #@! TF.CreationDate,2024-03-31T18:04:00+02:00
; #@! TF.GenerationSoftware,Kicad,Pcbnew,7.0.11-7.0.11~ubuntu22.04.1
; #@! TF.FileFunction,Plated,1,2,PTH
FMAT,2
METRIC
; #@! TA.AperFunction,Plated,PTH,ViaDrill
T1C0.400
; #@! TA.AperFunction,Plated,PTH,ComponentDrill
T2C0.800
; #@! TA.AperFunction,Plated,PTH,ComponentDrill
T3C1.000
; #@! TA.AperFunction,Plated,PTH,ComponentDrill
T4C1.500
%
G90
G05
T1
X44.704Y-55.372
X44.704Y-81.534
X44.704Y-145.542
X44.958Y-112.522
X45.212Y-39.878
X47.498Y-49.276
X50.241Y-63.043
X50.292Y-55.626
X50.546Y-68.326
X50.546Y-74.168
X51.054Y-52.07
X52.07Y-77.724
X52.324Y-60.198
X52.578Y-84.328
X52.832Y-98.552
X52.832Y-102.87
X53.594Y-118.618
X54.864Y-81.026
X56.134Y-61.214
X56.388Y-71.374
X57.658Y-86.36
X57.658Y-90.678
X57.658Y-102.87
X57.912Y-65.786
X58.166Y-73.152
X58.928Y-129.54
X59.69Y-61.214
X61.214Y-74.93
X61.468Y-65.786
X62.23Y-51.816
X62.738Y-48.006
X62.738Y-69.342
X63.6Y-60.198
X65.024Y-66.802
X65.024Y-101.346
X65.278Y-95.504
X68.58Y-82.804
X68.834Y-90.678
X69.342Y-86.36
X69.596Y-69.596
X69.85Y-76.454
X70.104Y-44.45
X70.612Y-49.53
X71.882Y-72.898
X72.136Y-94.488
X72.39Y-118.11
X73.66Y-86.36
X73.66Y-90.424
X73.914Y-39.624
X75.692Y-67.31
X75.946Y-72.898
X76.454Y-48.006
X76.454Y-50.8
X77.724Y-59.944
X77.978Y-144.78
X78.232Y-54.102
X79.248Y-66.802
X79.248Y-110.744
X80.01Y-45.974
X81.026Y-102.362
X81.026Y-106.426
X81.534Y-61.214
X81.534Y-80.518
X84.328Y-129.54
X84.582Y-66.802
X84.836Y-90.424
X85.09Y-61.468
X85.344Y-80.01
X85.598Y-86.36
X86.36Y-57.15
X88.392Y-118.11
X88.9Y-61.214
X89.408Y-86.36
X89.408Y-90.424
X92.456Y-66.802
X92.71Y-52.07
X92.71Y-61.468
X93.98Y-144.78
X94.996Y-39.624
X95.25Y-110.744
X96.266Y-61.214
X96.266Y-79.248
X97.028Y-102.362
X97.028Y-106.426
X99.06Y-57.15
X99.822Y-66.802
X100.076Y-61.468
X100.584Y-129.54
X100.838Y-90.424
X101.6Y-80.01
X101.6Y-86.36
X103.632Y-61.214
X104.394Y-118.11
X105.664Y-70.104
X105.664Y-86.36
X105.664Y-90.424
X106.172Y-63.5
X106.426Y-54.356
X108.712Y-47.244
X108.966Y-67.31
X110.236Y-144.78
X111.252Y-110.744
X112.776Y-46.228
X113.03Y-102.362
X113.03Y-106.426
X113.538Y-69.342
X114.808Y-49.276
X115.57Y-80.264
X116.586Y-129.54
X116.84Y-90.678
X117.602Y-86.36
X118.11Y-39.624
X118.364Y-73.152
X118.618Y-78.994
X119.634Y-67.31
X120.396Y-48.006
X120.396Y-51.054
X120.396Y-118.11
X121.412Y-86.36
X121.92Y-59.944
X122.174Y-54.356
X122.174Y-90.678
X123.19Y-66.548
X123.952Y-46.228
X125.476Y-61.214
X125.984Y-144.78
X127.0Y-110.744
X129.032Y-66.548
X129.032Y-102.362
X129.032Y-106.426
X129.286Y-61.468
X130.048Y-57.15
X131.318Y-80.01
X132.334Y-129.54
X132.842Y-61.214
X132.842Y-90.678
X133.858Y-86.36
X134.62Y-78.994
X136.398Y-118.11
X136.652Y-52.07
X136.652Y-61.468
X136.652Y-66.548
X137.668Y-86.36
X137.922Y-90.678
X139.446Y-39.624
X140.462Y-61.214
X142.24Y-144.78
X143.002Y-110.998
X143.256Y-57.15
X144.018Y-61.468
X144.018Y-66.548
X145.034Y-102.362
X145.034Y-106.426
X147.574Y-80.264
X147.828Y-61.214
X148.336Y-129.54
X148.59Y-90.678
X149.606Y-69.85
X149.606Y-86.36
X150.114Y-62.992
X150.368Y-54.356
X150.876Y-78.232
X152.4Y-118.11
X152.654Y-47.244
X152.908Y-67.564
X156.464Y-46.228
X156.464Y-73.66
X156.972Y-117.348
X157.48Y-69.596
X158.242Y-144.78
X158.75Y-49.784
X161.798Y-39.37
X163.83Y-67.564
X164.338Y-47.752
X164.338Y-51.308
X164.592Y-129.54
X165.62Y-60.198
X165.862Y-54.102
X166.116Y-69.596
X167.386Y-98.298
X167.64Y-65.532
X167.64Y-118.11
X168.148Y-46.228
X168.402Y-72.39
X168.656Y-101.346
X169.418Y-61.214
X171.196Y-69.342
X172.212Y-102.362
X173.228Y-61.468
X173.482Y-78.232
X173.482Y-98.044
X174.244Y-144.78
X174.498Y-74.168
X175.768Y-109.982
X176.53Y-99.314
X176.53Y-104.394
X176.784Y-61.214
X177.038Y-77.978
X178.308Y-127.508
X178.562Y-52.578
X178.562Y-68.326
X178.816Y-57.658
X178.816Y-74.168
X181.356Y-66.294
X181.864Y-47.498
X182.626Y-96.52
X186.182Y-113.538
X186.436Y-39.37
X186.436Y-81.026
X186.436Y-144.78
X186.69Y-54.864
T2
X50.5Y-50.12
X50.5Y-60.28
X50.5Y-66.12
X50.5Y-76.28
X54.2Y-50.12
X54.2Y-60.28
X57.9Y-50.12
X57.9Y-60.28
X61.6Y-50.12
X61.6Y-60.28
X66.8Y-47.54
X66.8Y-50.08
X66.8Y-52.62
X66.8Y-55.16
X66.8Y-57.7
X66.8Y-60.24
X66.8Y-62.78
X66.8Y-65.32
X66.8Y-69.3
X71.8Y-69.3
X74.42Y-47.54
X74.42Y-50.08
X74.42Y-52.62
X74.42Y-55.16
X74.42Y-57.7
X74.42Y-60.24
X74.42Y-62.78
X74.42Y-65.32
X79.7Y-50.12
X79.7Y-60.28
X83.4Y-50.12
X83.4Y-60.28
X87.1Y-50.12
X87.1Y-60.28
X90.8Y-50.12
X90.8Y-60.28
X94.5Y-50.12
X94.5Y-60.28
X98.2Y-50.12
X98.2Y-60.28
X101.9Y-50.12
X101.9Y-60.28
X105.6Y-50.12
X105.6Y-60.28
X110.8Y-47.54
X110.8Y-50.08
X110.8Y-52.62
X110.8Y-55.16
X110.8Y-57.7
X110.8Y-60.24
X110.8Y-62.78
X110.8Y-65.32
X110.8Y-69.3
X115.8Y-69.3
X118.42Y-47.54
X118.42Y-50.08
X118.42Y-52.62
X118.42Y-55.16
X118.42Y-57.7
X118.42Y-60.24
X118.42Y-62.78
X118.42Y-65.32
X123.7Y-50.12
X123.7Y-60.28
X127.4Y-50.12
X127.4Y-60.28
X131.1Y-50.12
X131.1Y-60.28
X134.8Y-50.12
X134.8Y-60.28
X138.5Y-50.12
X138.5Y-60.28
X142.2Y-50.12
X142.2Y-60.28
X145.9Y-50.12
X145.9Y-60.28
X149.6Y-50.12
X149.6Y-60.28
X154.8Y-47.54
X154.8Y-50.08
X154.8Y-52.62
X154.8Y-55.16
X154.8Y-57.7
X154.8Y-60.24
X154.8Y-62.78
X154.8Y-65.32
X154.8Y-69.3
X159.8Y-69.3
X162.42Y-47.54
X162.42Y-50.08
X162.42Y-52.62
X162.42Y-55.16
X162.42Y-57.7
X162.42Y-60.24
X162.42Y-62.78
X162.42Y-65.32
X167.7Y-50.12
X167.7Y-60.28
X171.4Y-50.12
X171.4Y-60.28
X175.1Y-50.12
X175.1Y-60.28
X178.8Y-50.12
X178.8Y-60.28
X178.8Y-66.12
X178.8Y-76.28
T3
X51.6Y-104.94
X51.6Y-107.48
X51.6Y-110.02
X51.6Y-112.56
X51.6Y-115.1
X51.6Y-117.64
X51.6Y-120.18
X54.1Y-76.28
X56.64Y-76.28
X172.69Y-76.28
X175.23Y-76.28
X178.1Y-98.125
X178.1Y-100.665
X178.1Y-103.205
X178.1Y-105.745
X178.1Y-108.285
X178.1Y-110.825
T4
X59.79Y-85.86
X66.14Y-83.32
X67.29Y-101.86
X73.64Y-99.32
X74.79Y-117.86
X75.79Y-85.86
X81.14Y-115.32
X82.14Y-83.32
X82.29Y-133.86
X83.29Y-101.86
X88.64Y-131.32
X89.64Y-99.32
X90.79Y-117.86
X91.79Y-85.86
X97.14Y-115.32
X98.14Y-83.32
X98.29Y-133.86
X99.29Y-101.86
X104.64Y-131.32
X105.64Y-99.32
X106.79Y-117.86
X107.79Y-85.86
X113.14Y-115.32
X114.14Y-83.32
X114.29Y-133.86
X115.29Y-101.86
X120.64Y-131.32
X121.64Y-99.32
X122.79Y-117.86
X123.79Y-85.86
X129.14Y-115.32
X130.14Y-83.32
X130.29Y-133.86
X131.29Y-101.86
X136.64Y-131.32
X137.64Y-99.32
X138.79Y-117.86
X139.79Y-85.86
X145.14Y-115.32
X146.14Y-83.32
X146.29Y-133.86
X147.29Y-101.86
X152.64Y-131.32
X153.64Y-99.32
X154.79Y-117.86
X161.14Y-115.32
X162.29Y-133.86
X168.64Y-131.32
M30
